<svg width="805" height="346" userViewBox="0 0 805 346" fill="none" xmlns="http://www.w3.org/2000/svg">
<mask id="path-1-outside-1_1_5" maskUnits="userSpaceOnUse" x="17" y="182" width="769" height="101" fill="black">
<rect fill="white" x="17" y="182" width="769" height="101"/>
<path d="M71.8193 215C71.5769 211.97 70.4405 209.606 68.4102 207.909C66.4102 206.212 63.3648 205.364 59.2739 205.364C56.6678 205.364 54.5315 205.682 52.8648 206.318C51.2284 206.924 50.0163 207.758 49.2284 208.818C48.4405 209.879 48.0315 211.091 48.0011 212.455C47.9405 213.576 48.1375 214.591 48.5921 215.5C49.0769 216.379 49.8345 217.182 50.8648 217.909C51.8951 218.606 53.2133 219.242 54.8193 219.818C56.4254 220.394 58.3345 220.909 60.5466 221.364L68.183 223C73.3345 224.091 77.7436 225.53 81.4102 227.318C85.0769 229.106 88.0769 231.212 90.4102 233.636C92.7436 236.03 94.4557 238.727 95.5466 241.727C96.6678 244.727 97.2436 248 97.2739 251.545C97.2436 257.667 95.7133 262.848 92.683 267.091C89.6527 271.333 85.3193 274.561 79.683 276.773C74.0769 278.985 67.3345 280.091 59.4557 280.091C51.3648 280.091 44.3042 278.894 38.2739 276.5C32.2739 274.106 27.6072 270.424 24.2739 265.455C20.9708 260.455 19.3042 254.061 19.2739 246.273H43.2739C43.4254 249.121 44.1375 251.515 45.4102 253.455C46.683 255.394 48.4708 256.864 50.7739 257.864C53.1072 258.864 55.8799 259.364 59.0921 259.364C61.789 259.364 64.0466 259.03 65.8648 258.364C67.683 257.697 69.0618 256.773 70.0012 255.591C70.9405 254.409 71.4254 253.061 71.4557 251.545C71.4254 250.121 70.9557 248.879 70.0466 247.818C69.1678 246.727 67.7133 245.758 65.683 244.909C63.6527 244.03 60.9102 243.212 57.4557 242.455L48.183 240.455C39.9405 238.667 33.4405 235.682 28.683 231.5C23.9557 227.288 21.6072 221.545 21.6375 214.273C21.6072 208.364 23.183 203.197 26.3648 198.773C29.5769 194.318 34.0163 190.848 39.683 188.364C45.3799 185.879 51.9102 184.636 59.2739 184.636C66.789 184.636 73.289 185.894 78.7739 188.409C84.2587 190.924 88.486 194.47 91.4557 199.045C94.4557 203.591 95.9708 208.909 96.0012 215H71.8193ZM132.488 279V185.909H157.76V222.273H191.215V185.909H216.488V279H191.215V242.636H157.76V279H132.488ZM278.269 279H250.997L281.724 185.909H316.269L346.997 279H319.724L299.36 211.545H298.633L278.269 279ZM273.178 242.273H324.451V261.182H273.178V242.273ZM381.562 279V185.909H406.835V258.636H444.472V279H381.562ZM480.288 279V185.909H505.56V258.636H543.197V279H480.288ZM665.569 232.455C665.569 242.818 663.554 251.561 659.524 258.682C655.494 265.773 650.054 271.152 643.206 274.818C636.357 278.455 628.721 280.273 620.297 280.273C611.812 280.273 604.145 278.439 597.297 274.773C590.478 271.076 585.054 265.682 581.024 258.591C577.024 251.47 575.024 242.758 575.024 232.455C575.024 222.091 577.024 213.364 581.024 206.273C585.054 199.152 590.478 193.773 597.297 190.136C604.145 186.47 611.812 184.636 620.297 184.636C628.721 184.636 636.357 186.47 643.206 190.136C650.054 193.773 655.494 199.152 659.524 206.273C663.554 213.364 665.569 222.091 665.569 232.455ZM639.569 232.455C639.569 226.879 638.827 222.182 637.342 218.364C635.888 214.515 633.721 211.606 630.842 209.636C627.994 207.636 624.478 206.636 620.297 206.636C616.115 206.636 612.584 207.636 609.706 209.636C606.857 211.606 604.691 214.515 603.206 218.364C601.751 222.182 601.024 226.879 601.024 232.455C601.024 238.03 601.751 242.742 603.206 246.591C604.691 250.409 606.857 253.318 609.706 255.318C612.584 257.288 616.115 258.273 620.297 258.273C624.478 258.273 627.994 257.288 630.842 255.318C633.721 253.318 635.888 250.409 637.342 246.591C638.827 242.742 639.569 238.03 639.569 232.455ZM783.408 185.909V279H762.317L728.681 230.091H728.135V279H702.862V185.909H724.317L757.408 234.636H758.135V185.909H783.408Z"/>
</mask>
<path d="M71.8193 215C71.5769 211.97 70.4405 209.606 68.4102 207.909C66.4102 206.212 63.3648 205.364 59.2739 205.364C56.6678 205.364 54.5315 205.682 52.8648 206.318C51.2284 206.924 50.0163 207.758 49.2284 208.818C48.4405 209.879 48.0315 211.091 48.0011 212.455C47.9405 213.576 48.1375 214.591 48.5921 215.5C49.0769 216.379 49.8345 217.182 50.8648 217.909C51.8951 218.606 53.2133 219.242 54.8193 219.818C56.4254 220.394 58.3345 220.909 60.5466 221.364L68.183 223C73.3345 224.091 77.7436 225.53 81.4102 227.318C85.0769 229.106 88.0769 231.212 90.4102 233.636C92.7436 236.03 94.4557 238.727 95.5466 241.727C96.6678 244.727 97.2436 248 97.2739 251.545C97.2436 257.667 95.7133 262.848 92.683 267.091C89.6527 271.333 85.3193 274.561 79.683 276.773C74.0769 278.985 67.3345 280.091 59.4557 280.091C51.3648 280.091 44.3042 278.894 38.2739 276.5C32.2739 274.106 27.6072 270.424 24.2739 265.455C20.9708 260.455 19.3042 254.061 19.2739 246.273H43.2739C43.4254 249.121 44.1375 251.515 45.4102 253.455C46.683 255.394 48.4708 256.864 50.7739 257.864C53.1072 258.864 55.8799 259.364 59.0921 259.364C61.789 259.364 64.0466 259.03 65.8648 258.364C67.683 257.697 69.0618 256.773 70.0012 255.591C70.9405 254.409 71.4254 253.061 71.4557 251.545C71.4254 250.121 70.9557 248.879 70.0466 247.818C69.1678 246.727 67.7133 245.758 65.683 244.909C63.6527 244.03 60.9102 243.212 57.4557 242.455L48.183 240.455C39.9405 238.667 33.4405 235.682 28.683 231.5C23.9557 227.288 21.6072 221.545 21.6375 214.273C21.6072 208.364 23.183 203.197 26.3648 198.773C29.5769 194.318 34.0163 190.848 39.683 188.364C45.3799 185.879 51.9102 184.636 59.2739 184.636C66.789 184.636 73.289 185.894 78.7739 188.409C84.2587 190.924 88.486 194.47 91.4557 199.045C94.4557 203.591 95.9708 208.909 96.0012 215H71.8193ZM132.488 279V185.909H157.76V222.273H191.215V185.909H216.488V279H191.215V242.636H157.76V279H132.488ZM278.269 279H250.997L281.724 185.909H316.269L346.997 279H319.724L299.36 211.545H298.633L278.269 279ZM273.178 242.273H324.451V261.182H273.178V242.273ZM381.562 279V185.909H406.835V258.636H444.472V279H381.562ZM480.288 279V185.909H505.56V258.636H543.197V279H480.288ZM665.569 232.455C665.569 242.818 663.554 251.561 659.524 258.682C655.494 265.773 650.054 271.152 643.206 274.818C636.357 278.455 628.721 280.273 620.297 280.273C611.812 280.273 604.145 278.439 597.297 274.773C590.478 271.076 585.054 265.682 581.024 258.591C577.024 251.47 575.024 242.758 575.024 232.455C575.024 222.091 577.024 213.364 581.024 206.273C585.054 199.152 590.478 193.773 597.297 190.136C604.145 186.47 611.812 184.636 620.297 184.636C628.721 184.636 636.357 186.47 643.206 190.136C650.054 193.773 655.494 199.152 659.524 206.273C663.554 213.364 665.569 222.091 665.569 232.455ZM639.569 232.455C639.569 226.879 638.827 222.182 637.342 218.364C635.888 214.515 633.721 211.606 630.842 209.636C627.994 207.636 624.478 206.636 620.297 206.636C616.115 206.636 612.584 207.636 609.706 209.636C606.857 211.606 604.691 214.515 603.206 218.364C601.751 222.182 601.024 226.879 601.024 232.455C601.024 238.03 601.751 242.742 603.206 246.591C604.691 250.409 606.857 253.318 609.706 255.318C612.584 257.288 616.115 258.273 620.297 258.273C624.478 258.273 627.994 257.288 630.842 255.318C633.721 253.318 635.888 250.409 637.342 246.591C638.827 242.742 639.569 238.03 639.569 232.455ZM783.408 185.909V279H762.317L728.681 230.091H728.135V279H702.862V185.909H724.317L757.408 234.636H758.135V185.909H783.408Z" fill="url(#paint0_linear_1_5)"/>
<path d="M71.8193 215L69.8257 215.159L69.9729 217H71.8193V215ZM68.4102 207.909L67.1163 209.434L67.1219 209.439L67.1276 209.444L68.4102 207.909ZM52.8648 206.318L53.5594 208.194L53.5688 208.19L53.5782 208.187L52.8648 206.318ZM49.2284 208.818L47.6229 207.626L47.6229 207.626L49.2284 208.818ZM48.0011 212.455L49.9982 212.562L49.9999 212.531L50.0007 212.499L48.0011 212.455ZM48.5921 215.5L46.8032 216.394L46.8213 216.431L46.8409 216.466L48.5921 215.5ZM50.8648 217.909L49.7114 219.543L49.7277 219.555L49.7442 219.566L50.8648 217.909ZM60.5466 221.364L60.9657 219.408L60.9574 219.406L60.9492 219.405L60.5466 221.364ZM68.183 223L67.7639 224.956L67.7686 224.957L68.183 223ZM81.4102 227.318L80.5337 229.116L81.4102 227.318ZM90.4102 233.636L88.9692 235.023L88.978 235.032L90.4102 233.636ZM95.5466 241.727L93.667 242.411L93.6701 242.419L93.6732 242.427L95.5466 241.727ZM97.2739 251.545L99.2739 251.555L99.2739 251.542L99.2738 251.528L97.2739 251.545ZM92.683 267.091L94.3104 268.253L94.3104 268.253L92.683 267.091ZM79.683 276.773L78.9523 274.911L78.9489 274.912L79.683 276.773ZM38.2739 276.5L37.5327 278.358L37.5359 278.359L38.2739 276.5ZM24.2739 265.455L22.6051 266.557L22.6129 266.569L24.2739 265.455ZM19.2739 246.273V244.273H17.2661L17.2739 246.281L19.2739 246.273ZM43.2739 246.273L45.2711 246.166L45.1703 244.273H43.2739V246.273ZM45.4102 253.455L43.7381 254.552L43.7381 254.552L45.4102 253.455ZM50.7739 257.864L49.9773 259.698L49.986 259.702L50.7739 257.864ZM65.8648 258.364L66.5533 260.241L66.5533 260.241L65.8648 258.364ZM70.0012 255.591L71.5668 256.835L71.5668 256.835L70.0012 255.591ZM71.4557 251.545L73.4553 251.585L73.4561 251.544L73.4552 251.503L71.4557 251.545ZM70.0466 247.818L68.4891 249.073L68.5082 249.097L68.5281 249.12L70.0466 247.818ZM65.683 244.909L64.8885 246.745L64.9001 246.75L64.9118 246.754L65.683 244.909ZM57.4557 242.455L57.8841 240.501L57.8774 240.5L57.4557 242.455ZM48.183 240.455L47.759 242.409L47.7613 242.41L48.183 240.455ZM28.683 231.5L27.3524 232.993L27.3626 233.002L28.683 231.5ZM21.6375 214.273L23.6375 214.281L23.6375 214.272L23.6375 214.262L21.6375 214.273ZM26.3648 198.773L24.7426 197.603L24.7411 197.605L26.3648 198.773ZM39.683 188.364L38.8834 186.53L38.8798 186.532L39.683 188.364ZM78.7739 188.409L77.9402 190.227L77.9402 190.227L78.7739 188.409ZM91.4557 199.045L89.778 200.134L89.7822 200.141L89.7865 200.147L91.4557 199.045ZM96.0012 215V217H98.0111L98.0011 214.99L96.0012 215ZM71.8193 215L73.813 214.841C73.5347 211.362 72.1974 208.468 69.6929 206.375L68.4102 207.909L67.1276 209.444C68.6837 210.744 69.6192 212.578 69.8257 215.159L71.8193 215ZM68.4102 207.909L69.7042 206.384C67.1884 204.249 63.5867 203.364 59.2739 203.364V205.364V207.364C63.1429 207.364 65.6321 208.175 67.1163 209.434L68.4102 207.909ZM59.2739 205.364V203.364C56.5263 203.364 54.1251 203.696 52.1514 204.45L52.8648 206.318L53.5782 208.187C54.9378 207.667 56.8093 207.364 59.2739 207.364V205.364ZM52.8648 206.318L52.1702 204.443C50.2848 205.141 48.7052 206.169 47.6229 207.626L49.2284 208.818L50.8339 210.011C51.3274 209.346 52.1721 208.708 53.5594 208.194L52.8648 206.318ZM49.2284 208.818L47.6229 207.626C46.5795 209.03 46.0408 210.646 46.0016 212.41L48.0011 212.455L50.0007 212.499C50.0221 211.535 50.3016 210.727 50.8339 210.011L49.2284 208.818ZM48.0011 212.455L46.0041 212.347C45.9267 213.777 46.1776 215.143 46.8032 216.394L48.5921 215.5L50.3809 214.606C50.0974 214.039 49.9543 213.374 49.9982 212.562L48.0011 212.455ZM48.5921 215.5L46.8409 216.466C47.5045 217.669 48.4956 218.685 49.7114 219.543L50.8648 217.909L52.0182 216.275C51.1733 215.679 50.6493 215.089 50.3432 214.534L48.5921 215.5ZM50.8648 217.909L49.7442 219.566C50.9535 220.384 52.4347 221.088 54.1444 221.701L54.8193 219.818L55.4943 217.936C53.9918 217.397 52.8367 216.828 51.9854 216.253L50.8648 217.909ZM54.8193 219.818L54.1444 221.701C55.8625 222.317 57.8671 222.855 60.1441 223.323L60.5466 221.364L60.9492 219.405C58.8019 218.963 56.9883 218.471 55.4943 217.936L54.8193 219.818ZM60.5466 221.364L60.1275 223.319L67.7639 224.956L68.183 223L68.602 221.044L60.9657 219.408L60.5466 221.364ZM68.183 223L67.7686 224.957C72.8038 226.023 77.0494 227.417 80.5337 229.116L81.4102 227.318L82.2868 225.521C78.4378 223.644 73.8651 222.159 68.5973 221.043L68.183 223ZM81.4102 227.318L80.5337 229.116C84.033 230.822 86.829 232.8 88.9693 235.023L90.4102 233.636L91.8512 232.249C89.3249 229.625 86.1208 227.39 82.2868 225.521L81.4102 227.318ZM90.4102 233.636L88.978 235.032C91.123 237.233 92.6776 239.69 93.667 242.411L95.5466 241.727L97.4262 241.044C96.2338 237.765 94.3642 234.828 91.8425 232.24L90.4102 233.636ZM95.5466 241.727L93.6732 242.427C94.7044 245.187 95.2454 248.226 95.274 251.563L97.2739 251.545L99.2738 251.528C99.2417 247.774 98.6312 244.268 97.42 241.027L95.5466 241.727ZM97.2739 251.545L95.2739 251.536C95.2453 257.317 93.8058 262.078 91.0555 265.928L92.683 267.091L94.3104 268.253C97.6208 263.619 99.2419 258.016 99.2739 251.555L97.2739 251.545ZM92.683 267.091L91.0555 265.928C88.2846 269.808 84.2878 272.817 78.9523 274.911L79.683 276.773L80.4137 278.634C86.3509 276.304 91.0207 272.859 94.3104 268.253L92.683 267.091ZM79.683 276.773L78.9489 274.912C73.6362 277.009 67.1565 278.091 59.4557 278.091V280.091V282.091C67.5125 282.091 74.5176 280.961 80.4171 278.633L79.683 276.773ZM59.4557 280.091V278.091C51.5573 278.091 44.7571 276.922 39.0118 274.641L38.2739 276.5L37.5359 278.359C43.8512 280.866 51.1723 282.091 59.4557 282.091V280.091ZM38.2739 276.5L39.015 274.642C33.3583 272.385 29.0255 268.948 25.9349 264.34L24.2739 265.455L22.6129 266.569C26.1889 271.9 31.1894 275.827 37.5327 278.358L38.2739 276.5ZM24.2739 265.455L25.9426 264.352C22.9099 259.761 21.3031 253.779 21.2739 246.265L19.2739 246.273L17.2739 246.281C17.3053 254.343 19.0318 261.148 22.6051 266.557L24.2739 265.455ZM19.2739 246.273V248.273H43.2739V246.273V244.273H19.2739V246.273ZM43.2739 246.273L41.2767 246.379C41.4427 249.5 42.2313 252.256 43.7381 254.552L45.4102 253.455L47.0823 252.357C46.0437 250.775 45.4081 248.742 45.2711 246.166L43.2739 246.273ZM45.4102 253.455L43.7381 254.552C45.2423 256.844 47.3476 258.556 49.9773 259.698L50.7739 257.864L51.5704 256.029C49.5941 255.171 48.1236 253.944 47.0823 252.357L45.4102 253.455ZM50.7739 257.864L49.986 259.702C52.6249 260.833 55.6783 261.364 59.0921 261.364V259.364V257.364C56.0815 257.364 53.5895 256.894 51.5617 256.025L50.7739 257.864ZM59.0921 259.364V261.364C61.9386 261.364 64.4466 261.014 66.5533 260.241L65.8648 258.364L65.1763 256.486C63.6466 257.047 61.6395 257.364 59.0921 257.364V259.364ZM65.8648 258.364L66.5533 260.241C68.6204 259.483 70.3425 258.376 71.5668 256.835L70.0012 255.591L68.4355 254.346C67.781 255.17 66.7455 255.911 65.1763 256.486L65.8648 258.364ZM70.0012 255.591L71.5668 256.835C72.78 255.309 73.4163 253.537 73.4553 251.585L71.4557 251.545L69.4561 251.505C69.4345 252.584 69.101 253.509 68.4355 254.346L70.0012 255.591ZM71.4557 251.545L73.4552 251.503C73.4153 249.626 72.7818 247.936 71.5651 246.517L70.0466 247.818L68.5281 249.12C69.1296 249.821 69.4355 250.616 69.4561 251.588L71.4557 251.545ZM70.0466 247.818L71.6041 246.564C70.4302 245.106 68.6331 243.974 66.4542 243.064L65.683 244.909L64.9118 246.754C66.7935 247.541 67.9054 248.348 68.4891 249.073L70.0466 247.818ZM65.683 244.909L66.4774 243.074C64.2808 242.123 61.3993 241.272 57.8841 240.501L57.4557 242.455L57.0273 244.408C60.4212 245.152 63.0245 245.938 64.8885 246.745L65.683 244.909ZM57.4557 242.455L57.8774 240.5L48.6046 238.5L48.183 240.455L47.7613 242.41L57.034 244.41L57.4557 242.455ZM48.183 240.455L48.6069 238.5C40.5907 236.761 34.4346 233.893 30.0034 229.998L28.683 231.5L27.3626 233.002C32.4465 237.471 39.2904 240.572 47.759 242.409L48.183 240.455ZM28.683 231.5L30.0135 230.007C25.78 226.235 23.6092 221.075 23.6375 214.281L21.6375 214.273L19.6375 214.264C19.6052 222.016 22.1314 228.341 27.3525 232.993L28.683 231.5ZM21.6375 214.273L23.6375 214.262C23.6092 208.738 25.0745 203.992 27.9885 199.94L26.3648 198.773L24.7411 197.605C21.2915 202.402 19.6053 207.989 19.6375 214.283L21.6375 214.273ZM26.3648 198.773L27.987 199.942C30.9647 195.813 35.1044 192.555 40.4861 190.195L39.683 188.364L38.8798 186.532C32.9282 189.142 28.1892 192.823 24.7426 197.603L26.3648 198.773ZM39.683 188.364L40.4826 190.197C45.8851 187.84 52.1353 186.636 59.2739 186.636V184.636V182.636C51.6852 182.636 44.8747 183.917 38.8834 186.53L39.683 188.364ZM59.2739 184.636V186.636C66.57 186.636 72.7729 187.858 77.9402 190.227L78.7739 188.409L79.6075 186.591C73.8052 183.93 67.0081 182.636 59.2739 182.636V184.636ZM78.7739 188.409L77.9402 190.227C83.1182 192.601 87.0364 195.91 89.778 200.134L91.4557 199.045L93.1333 197.957C89.9356 193.029 85.3993 189.247 79.6075 186.591L78.7739 188.409ZM91.4557 199.045L89.7865 200.147C92.5478 204.331 93.9726 209.26 94.0012 215.01L96.0012 215L98.0011 214.99C97.9691 208.558 96.3636 202.851 93.1249 197.944L91.4557 199.045ZM96.0012 215V213H71.8193V215V217H96.0012V215ZM132.488 279H130.488V281H132.488V279ZM132.488 185.909V183.909H130.488V185.909H132.488ZM157.76 185.909H159.76V183.909H157.76V185.909ZM157.76 222.273H155.76V224.273H157.76V222.273ZM191.215 222.273V224.273H193.215V222.273H191.215ZM191.215 185.909V183.909H189.215V185.909H191.215ZM216.488 185.909H218.488V183.909H216.488V185.909ZM216.488 279V281H218.488V279H216.488ZM191.215 279H189.215V281H191.215V279ZM191.215 242.636H193.215V240.636H191.215V242.636ZM157.76 242.636V240.636H155.76V242.636H157.76ZM157.76 279V281H159.76V279H157.76ZM132.488 279H134.488V185.909H132.488H130.488V279H132.488ZM132.488 185.909V187.909H157.76V185.909V183.909H132.488V185.909ZM157.76 185.909H155.76V222.273H157.76H159.76V185.909H157.76ZM157.76 222.273V224.273H191.215V222.273V220.273H157.76V222.273ZM191.215 222.273H193.215V185.909H191.215H189.215V222.273H191.215ZM191.215 185.909V187.909H216.488V185.909V183.909H191.215V185.909ZM216.488 185.909H214.488V279H216.488H218.488V185.909H216.488ZM216.488 279V277H191.215V279V281H216.488V279ZM191.215 279H193.215V242.636H191.215H189.215V279H191.215ZM191.215 242.636V240.636H157.76V242.636V244.636H191.215V242.636ZM157.76 242.636H155.76V279H157.76H159.76V242.636H157.76ZM157.76 279V277H132.488V279V281H157.76V279ZM278.269 279V281H279.755L280.184 279.578L278.269 279ZM250.997 279L249.097 278.373L248.23 281H250.997V279ZM281.724 185.909V183.909H280.278L279.825 185.282L281.724 185.909ZM316.269 185.909L318.169 185.282L317.715 183.909H316.269V185.909ZM346.997 279V281H349.763L348.896 278.373L346.997 279ZM319.724 279L317.809 279.578L318.239 281H319.724V279ZM299.36 211.545L301.275 210.967L300.846 209.545H299.36V211.545ZM298.633 211.545V209.545H297.148L296.718 210.967L298.633 211.545ZM273.178 242.273V240.273H271.178V242.273H273.178ZM324.451 242.273H326.451V240.273H324.451V242.273ZM324.451 261.182V263.182H326.451V261.182H324.451ZM273.178 261.182H271.178V263.182H273.178V261.182ZM278.269 279V277H250.997V279V281H278.269V279ZM250.997 279L252.896 279.627L283.623 186.536L281.724 185.909L279.825 185.282L249.097 278.373L250.997 279ZM281.724 185.909V187.909H316.269V185.909V183.909H281.724V185.909ZM316.269 185.909L314.37 186.536L345.097 279.627L346.997 279L348.896 278.373L318.169 185.282L316.269 185.909ZM346.997 279V277H319.724V279V281H346.997V279ZM319.724 279L321.639 278.422L301.275 210.967L299.36 211.545L297.446 212.123L317.809 279.578L319.724 279ZM299.36 211.545V209.545H298.633V211.545V213.545H299.36V211.545ZM298.633 211.545L296.718 210.967L276.355 278.422L278.269 279L280.184 279.578L300.548 212.123L298.633 211.545ZM273.178 242.273V244.273H324.451V242.273V240.273H273.178V242.273ZM324.451 242.273H322.451V261.182H324.451H326.451V242.273H324.451ZM324.451 261.182V259.182H273.178V261.182V263.182H324.451V261.182ZM273.178 261.182H275.178V242.273H273.178H271.178V261.182H273.178ZM381.562 279H379.562V281H381.562V279ZM381.562 185.909V183.909H379.562V185.909H381.562ZM406.835 185.909H408.835V183.909H406.835V185.909ZM406.835 258.636H404.835V260.636H406.835V258.636ZM444.472 258.636H446.472V256.636H444.472V258.636ZM444.472 279V281H446.472V279H444.472ZM381.562 279H383.562V185.909H381.562H379.562V279H381.562ZM381.562 185.909V187.909H406.835V185.909V183.909H381.562V185.909ZM406.835 185.909H404.835V258.636H406.835H408.835V185.909H406.835ZM406.835 258.636V260.636H444.472V258.636V256.636H406.835V258.636ZM444.472 258.636H442.472V279H444.472H446.472V258.636H444.472ZM444.472 279V277H381.562V279V281H444.472V279ZM480.288 279H478.288V281H480.288V279ZM480.288 185.909V183.909H478.288V185.909H480.288ZM505.56 185.909H507.56V183.909H505.56V185.909ZM505.56 258.636H503.56V260.636H505.56V258.636ZM543.197 258.636H545.197V256.636H543.197V258.636ZM543.197 279V281H545.197V279H543.197ZM480.288 279H482.288V185.909H480.288H478.288V279H480.288ZM480.288 185.909V187.909H505.56V185.909V183.909H480.288V185.909ZM505.56 185.909H503.56V258.636H505.56H507.56V185.909H505.56ZM505.56 258.636V260.636H543.197V258.636V256.636H505.56V258.636ZM543.197 258.636H541.197V279H543.197H545.197V258.636H543.197ZM543.197 279V277H480.288V279V281H543.197V279ZM659.524 258.682L661.263 259.67L661.264 259.667L659.524 258.682ZM643.206 274.818L644.144 276.585L644.15 276.581L643.206 274.818ZM597.297 274.773L596.343 276.531L596.353 276.536L597.297 274.773ZM581.024 258.591L579.28 259.57L579.285 259.579L581.024 258.591ZM581.024 206.273L579.283 205.288L579.282 205.29L581.024 206.273ZM597.297 190.136L598.238 191.901L598.241 191.9L597.297 190.136ZM643.206 190.136L642.262 191.9L642.268 191.903L643.206 190.136ZM659.524 206.273L657.783 207.258L657.785 207.261L659.524 206.273ZM637.342 218.364L635.471 219.071L635.475 219.08L635.478 219.089L637.342 218.364ZM630.842 209.636L629.693 211.273L629.703 211.28L629.713 211.287L630.842 209.636ZM609.706 209.636L610.843 211.281L610.847 211.279L609.706 209.636ZM603.206 218.364L601.34 217.644L601.337 217.652L603.206 218.364ZM603.206 246.591L601.335 247.298L601.338 247.307L601.342 247.316L603.206 246.591ZM609.706 255.318L608.556 256.955L608.566 256.962L608.576 256.969L609.706 255.318ZM630.842 255.318L631.98 256.963L631.983 256.961L630.842 255.318ZM637.342 246.591L635.476 245.871L635.473 245.879L637.342 246.591ZM665.569 232.455H663.569C663.569 242.563 661.604 250.946 657.783 257.697L659.524 258.682L661.264 259.667C665.504 252.175 667.569 243.073 667.569 232.455H665.569ZM659.524 258.682L657.785 257.694C653.932 264.474 648.76 269.576 642.262 273.055L643.206 274.818L644.15 276.581C651.348 272.727 657.056 267.072 661.263 259.67L659.524 258.682ZM643.206 274.818L642.268 273.052C635.733 276.522 628.423 278.273 620.297 278.273V280.273V282.273C629.019 282.273 636.982 280.387 644.144 276.585L643.206 274.818ZM620.297 280.273V278.273C612.11 278.273 604.773 276.507 598.241 273.01L597.297 274.773L596.353 276.536C603.518 280.372 611.513 282.273 620.297 282.273V280.273ZM597.297 274.773L598.25 273.015C591.778 269.505 586.618 264.386 582.763 257.603L581.024 258.591L579.285 259.579C583.49 266.978 589.179 272.646 596.343 276.531L597.297 274.773ZM581.024 258.591L582.768 257.611C578.974 250.858 577.024 242.503 577.024 232.455H575.024H573.024C573.024 243.012 575.074 252.082 579.28 259.57L581.024 258.591ZM575.024 232.455H577.024C577.024 222.343 578.975 213.975 582.766 207.255L581.024 206.273L579.282 205.29C575.073 212.752 573.024 221.839 573.024 232.455H575.024ZM581.024 206.273L582.764 207.258C586.619 200.447 591.775 195.348 598.238 191.901L597.297 190.136L596.355 188.372C589.182 192.197 583.489 197.856 579.283 205.288L581.024 206.273ZM597.297 190.136L598.241 191.9C604.773 188.402 612.11 186.636 620.297 186.636V184.636V182.636C611.513 182.636 603.518 184.537 596.353 188.373L597.297 190.136ZM620.297 184.636V186.636C628.42 186.636 635.728 188.401 642.262 191.9L643.206 190.136L644.15 188.373C636.987 184.538 629.022 182.636 620.297 182.636V184.636ZM643.206 190.136L642.268 191.903C648.761 195.35 653.93 200.449 657.783 207.258L659.524 206.273L661.264 205.288C657.057 197.854 651.348 192.195 644.144 188.37L643.206 190.136ZM659.524 206.273L657.785 207.261C661.604 213.98 663.569 222.345 663.569 232.455H665.569H667.569C667.569 221.836 665.505 212.748 661.263 205.284L659.524 206.273ZM639.569 232.455H641.569C641.569 226.715 640.807 221.755 639.206 217.639L637.342 218.364L635.478 219.089C636.847 222.609 637.569 227.043 637.569 232.455H639.569ZM637.342 218.364L639.213 217.657C637.64 213.496 635.245 210.226 631.971 207.986L630.842 209.636L629.713 211.287C632.196 212.986 634.135 215.535 635.471 219.071L637.342 218.364ZM630.842 209.636L631.991 208C628.743 205.719 624.805 204.636 620.297 204.636V206.636V208.636C624.152 208.636 627.244 209.554 629.693 211.273L630.842 209.636ZM620.297 206.636V204.636C615.787 204.636 611.839 205.719 608.565 207.994L609.706 209.636L610.847 211.279C613.33 209.554 616.442 208.636 620.297 208.636V206.636ZM609.706 209.636L608.568 207.991C605.331 210.23 602.941 213.494 601.34 217.644L603.206 218.364L605.072 219.084C606.44 215.537 608.384 212.982 610.843 211.281L609.706 209.636ZM603.206 218.364L601.337 217.652C599.77 221.764 599.024 226.718 599.024 232.455H601.024H603.024C603.024 227.039 603.732 222.6 605.075 219.076L603.206 218.364ZM601.024 232.455H599.024C599.024 238.192 599.771 243.159 601.335 247.298L603.206 246.591L605.077 245.884C603.732 242.326 603.024 237.869 603.024 232.455H601.024ZM603.206 246.591L601.342 247.316C602.944 251.435 605.331 254.69 608.556 256.955L609.706 255.318L610.855 253.681C608.383 251.946 606.437 249.383 605.07 245.866L603.206 246.591ZM609.706 255.318L608.576 256.969C611.849 259.208 615.793 260.273 620.297 260.273V258.273V256.273C616.436 256.273 613.32 255.368 610.835 253.668L609.706 255.318ZM620.297 258.273V260.273C624.799 260.273 628.733 259.208 631.98 256.963L630.842 255.318L629.705 253.673C627.255 255.367 624.158 256.273 620.297 256.273V258.273ZM630.842 255.318L631.983 256.961C635.245 254.695 637.637 251.433 639.211 247.303L637.342 246.591L635.473 245.879C634.138 249.385 632.197 251.942 629.701 253.676L630.842 255.318ZM637.342 246.591L639.208 247.311C640.807 243.167 641.569 238.195 641.569 232.455H639.569H637.569C637.569 237.865 636.847 242.317 635.476 245.871L637.342 246.591ZM783.408 185.909H785.408V183.909H783.408V185.909ZM783.408 279V281H785.408V279H783.408ZM762.317 279L760.669 280.133L761.265 281H762.317V279ZM728.681 230.091L730.329 228.958L729.733 228.091H728.681V230.091ZM728.135 230.091V228.091H726.135V230.091H728.135ZM728.135 279V281H730.135V279H728.135ZM702.862 279H700.862V281H702.862V279ZM702.862 185.909V183.909H700.862V185.909H702.862ZM724.317 185.909L725.972 184.785L725.376 183.909H724.317V185.909ZM757.408 234.636L755.753 235.76L756.349 236.636H757.408V234.636ZM758.135 234.636V236.636H760.135V234.636H758.135ZM758.135 185.909V183.909H756.135V185.909H758.135ZM783.408 185.909H781.408V279H783.408H785.408V185.909H783.408ZM783.408 279V277H762.317V279V281H783.408V279ZM762.317 279L763.965 277.867L730.329 228.958L728.681 230.091L727.033 231.224L760.669 280.133L762.317 279ZM728.681 230.091V228.091H728.135V230.091V232.091H728.681V230.091ZM728.135 230.091H726.135V279H728.135H730.135V230.091H728.135ZM728.135 279V277H702.862V279V281H728.135V279ZM702.862 279H704.862V185.909H702.862H700.862V279H702.862ZM702.862 185.909V187.909H724.317V185.909V183.909H702.862V185.909ZM724.317 185.909L722.662 187.033L755.753 235.76L757.408 234.636L759.062 233.513L725.972 184.785L724.317 185.909ZM757.408 234.636V236.636H758.135V234.636V232.636H757.408V234.636ZM758.135 234.636H760.135V185.909H758.135H756.135V234.636H758.135ZM758.135 185.909V187.909H783.408V185.909V183.909H758.135V185.909Z" fill="#D3D2DA" mask="url(#path-1-outside-1_1_5)"/>
<mask id="path-3-outside-2_1_5" maskUnits="userSpaceOnUse" x="308" y="307" width="193" height="27" fill="black">
<rect fill="white" x="308" y="307" width="193" height="27"/>
<path d="M309.573 332V314.545H310.925V317.182H311.062C311.395 316.303 311.971 315.606 312.789 315.091C313.607 314.576 314.592 314.318 315.744 314.318C317.009 314.318 318.028 314.621 318.8 315.227C319.581 315.833 320.141 316.655 320.482 317.693H320.607C320.948 316.67 321.558 315.852 322.437 315.239C323.323 314.625 324.414 314.318 325.709 314.318C327.399 314.318 328.687 314.852 329.573 315.92C330.467 316.981 330.914 318.436 330.914 320.284V332H329.528V320.284C329.528 318.83 329.179 317.686 328.482 316.852C327.785 316.019 326.763 315.602 325.414 315.602C323.975 315.602 322.869 316.053 322.096 316.955C321.323 317.856 320.937 319.004 320.937 320.398V332H319.55V320.193C319.55 318.837 319.209 317.735 318.528 316.886C317.846 316.03 316.823 315.602 315.459 315.602C314.535 315.602 313.736 315.814 313.062 316.239C312.395 316.663 311.876 317.246 311.505 317.989C311.141 318.731 310.959 319.583 310.959 320.545V332H309.573ZM351.154 332.364C349.578 332.364 348.207 331.973 347.04 331.193C345.873 330.413 344.972 329.345 344.336 327.989C343.699 326.633 343.381 325.087 343.381 323.352C343.381 321.61 343.699 320.057 344.336 318.693C344.979 317.33 345.862 316.254 346.983 315.466C348.104 314.678 349.385 314.284 350.824 314.284C351.801 314.284 352.726 314.481 353.597 314.875C354.476 315.261 355.248 315.822 355.915 316.557C356.589 317.292 357.116 318.178 357.495 319.216C357.881 320.254 358.074 321.42 358.074 322.716V323.58H344.256V322.318H356.688C356.688 321.053 356.43 319.913 355.915 318.898C355.4 317.883 354.699 317.076 353.813 316.477C352.926 315.879 351.93 315.58 350.824 315.58C349.665 315.58 348.631 315.905 347.722 316.557C346.82 317.201 346.104 318.072 345.574 319.17C345.051 320.269 344.779 321.496 344.756 322.852V323.42C344.756 324.875 345.01 326.182 345.517 327.341C346.032 328.492 346.767 329.405 347.722 330.08C348.676 330.746 349.82 331.08 351.154 331.08C352.108 331.08 352.923 330.92 353.597 330.602C354.279 330.277 354.836 329.883 355.267 329.42C355.699 328.958 356.025 328.511 356.245 328.08L357.506 328.591C357.241 329.174 356.828 329.758 356.267 330.341C355.714 330.917 355.01 331.398 354.154 331.784C353.305 332.17 352.305 332.364 351.154 332.364ZM377.072 332.364C375.587 332.364 374.281 331.973 373.152 331.193C372.023 330.405 371.141 329.33 370.504 327.966C369.875 326.602 369.561 325.057 369.561 323.33C369.561 321.602 369.879 320.057 370.516 318.693C371.152 317.33 372.034 316.254 373.163 315.466C374.292 314.678 375.591 314.284 377.061 314.284C378.167 314.284 379.175 314.511 380.084 314.966C381 315.42 381.758 316.053 382.356 316.864C382.962 317.674 383.349 318.614 383.516 319.682H382.106C381.879 318.5 381.311 317.523 380.402 316.75C379.5 315.97 378.391 315.58 377.072 315.58C375.891 315.58 374.837 315.913 373.913 316.58C372.989 317.239 372.262 318.152 371.731 319.318C371.201 320.477 370.936 321.807 370.936 323.307C370.936 324.784 371.194 326.11 371.709 327.284C372.224 328.451 372.944 329.375 373.868 330.057C374.792 330.739 375.86 331.08 377.072 331.08C377.928 331.08 378.709 330.909 379.413 330.568C380.125 330.227 380.72 329.742 381.197 329.114C381.675 328.485 381.989 327.75 382.141 326.909H383.55C383.383 327.985 383.004 328.932 382.413 329.75C381.822 330.568 381.069 331.208 380.152 331.67C379.235 332.133 378.209 332.364 377.072 332.364ZM400.582 332.375C399.574 332.375 398.65 332.174 397.809 331.773C396.976 331.371 396.305 330.784 395.798 330.011C395.298 329.239 395.048 328.299 395.048 327.193C395.048 326.466 395.177 325.826 395.434 325.273C395.692 324.72 396.089 324.242 396.627 323.841C397.165 323.439 397.855 323.11 398.696 322.852C399.536 322.587 400.54 322.383 401.707 322.239C402.593 322.133 403.385 322.03 404.082 321.932C404.779 321.826 405.324 321.663 405.718 321.443C406.12 321.223 406.321 320.89 406.321 320.443V319.716C406.321 318.443 405.919 317.432 405.116 316.682C404.313 315.932 403.207 315.557 401.798 315.557C400.548 315.557 399.495 315.833 398.639 316.386C397.79 316.932 397.196 317.636 396.855 318.5L395.548 318.011C395.881 317.178 396.362 316.485 396.991 315.932C397.627 315.379 398.355 314.966 399.173 314.693C399.999 314.42 400.862 314.284 401.764 314.284C402.544 314.284 403.286 314.394 403.991 314.614C404.703 314.833 405.336 315.167 405.889 315.614C406.449 316.061 406.892 316.633 407.218 317.33C407.544 318.019 407.707 318.845 407.707 319.807V332H406.321V328.852H406.218C405.915 329.504 405.499 330.098 404.968 330.636C404.446 331.167 403.813 331.591 403.071 331.909C402.336 332.22 401.506 332.375 400.582 332.375ZM400.718 331.091C401.809 331.091 402.775 330.826 403.616 330.295C404.464 329.758 405.127 329.023 405.605 328.091C406.082 327.159 406.321 326.102 406.321 324.92V322.352C406.146 322.504 405.892 322.64 405.559 322.761C405.233 322.875 404.862 322.977 404.446 323.068C404.036 323.152 403.605 323.227 403.15 323.295C402.703 323.356 402.267 323.413 401.843 323.466C400.571 323.617 399.533 323.852 398.73 324.17C397.934 324.481 397.351 324.89 396.98 325.398C396.616 325.905 396.434 326.519 396.434 327.239C396.434 328.428 396.843 329.367 397.661 330.057C398.48 330.746 399.499 331.091 400.718 331.091ZM405.002 312.636L401.946 309.239L398.889 312.636H397.457V312.511L401.48 308.091H402.411L406.434 312.511V312.636H405.002ZM422.586 320.682V332H421.199V314.545H422.552V317.307H422.688C423.097 316.405 423.752 315.682 424.654 315.136C425.555 314.591 426.627 314.318 427.87 314.318C429.044 314.318 430.074 314.568 430.961 315.068C431.855 315.568 432.552 316.28 433.052 317.205C433.559 318.121 433.813 319.216 433.813 320.489V332H432.427V320.545C432.427 319.061 431.983 317.867 431.097 316.966C430.218 316.057 429.055 315.602 427.608 315.602C426.639 315.602 425.775 315.814 425.018 316.239C424.26 316.663 423.665 317.258 423.233 318.023C422.802 318.78 422.586 319.667 422.586 320.682ZM447.323 332V314.545H448.698V332H447.323ZM448.016 311.455C447.713 311.455 447.448 311.348 447.22 311.136C447.001 310.924 446.891 310.667 446.891 310.364C446.891 310.061 447.001 309.803 447.22 309.591C447.44 309.379 447.705 309.273 448.016 309.273C448.319 309.273 448.58 309.379 448.8 309.591C449.027 309.803 449.141 310.061 449.141 310.364C449.141 310.667 449.031 310.924 448.811 311.136C448.591 311.348 448.326 311.455 448.016 311.455ZM468.73 332.364C467.245 332.364 465.938 331.973 464.809 331.193C463.681 330.405 462.798 329.33 462.162 327.966C461.533 326.602 461.218 325.057 461.218 323.33C461.218 321.602 461.537 320.057 462.173 318.693C462.809 317.33 463.692 316.254 464.821 315.466C465.95 314.678 467.249 314.284 468.718 314.284C469.825 314.284 470.832 314.511 471.741 314.966C472.658 315.42 473.415 316.053 474.014 316.864C474.62 317.674 475.006 318.614 475.173 319.682H473.764C473.537 318.5 472.968 317.523 472.059 316.75C471.158 315.97 470.048 315.58 468.73 315.58C467.548 315.58 466.495 315.913 465.571 316.58C464.647 317.239 463.919 318.152 463.389 319.318C462.859 320.477 462.593 321.807 462.593 323.307C462.593 324.784 462.851 326.11 463.366 327.284C463.881 328.451 464.601 329.375 465.525 330.057C466.45 330.739 467.518 331.08 468.73 331.08C469.586 331.08 470.366 330.909 471.071 330.568C471.783 330.227 472.378 329.742 472.855 329.114C473.332 328.485 473.647 327.75 473.798 326.909H475.207C475.04 327.985 474.662 328.932 474.071 329.75C473.48 330.568 472.726 331.208 471.809 331.67C470.893 332.133 469.866 332.364 468.73 332.364ZM492.239 332.375C491.232 332.375 490.308 332.174 489.467 331.773C488.633 331.371 487.963 330.784 487.455 330.011C486.955 329.239 486.705 328.299 486.705 327.193C486.705 326.466 486.834 325.826 487.092 325.273C487.349 324.72 487.747 324.242 488.285 323.841C488.823 323.439 489.512 323.11 490.353 322.852C491.194 322.587 492.198 322.383 493.364 322.239C494.251 322.133 495.042 322.03 495.739 321.932C496.436 321.826 496.982 321.663 497.376 321.443C497.777 321.223 497.978 320.89 497.978 320.443V319.716C497.978 318.443 497.577 317.432 496.773 316.682C495.97 315.932 494.864 315.557 493.455 315.557C492.205 315.557 491.152 315.833 490.296 316.386C489.448 316.932 488.853 317.636 488.512 318.5L487.205 318.011C487.539 317.178 488.02 316.485 488.648 315.932C489.285 315.379 490.012 314.966 490.83 314.693C491.656 314.42 492.52 314.284 493.421 314.284C494.202 314.284 494.944 314.394 495.648 314.614C496.361 314.833 496.993 315.167 497.546 315.614C498.107 316.061 498.55 316.633 498.876 317.33C499.202 318.019 499.364 318.845 499.364 319.807V332H497.978V328.852H497.876C497.573 329.504 497.156 330.098 496.626 330.636C496.103 331.167 495.47 331.591 494.728 331.909C493.993 332.22 493.164 332.375 492.239 332.375ZM492.376 331.091C493.467 331.091 494.433 330.826 495.273 330.295C496.122 329.758 496.785 329.023 497.262 328.091C497.739 327.159 497.978 326.102 497.978 324.92V322.352C497.804 322.504 497.55 322.64 497.217 322.761C496.891 322.875 496.52 322.977 496.103 323.068C495.694 323.152 495.262 323.227 494.808 323.295C494.361 323.356 493.925 323.413 493.501 323.466C492.228 323.617 491.19 323.852 490.387 324.17C489.592 324.481 489.008 324.89 488.637 325.398C488.273 325.905 488.092 326.519 488.092 327.239C488.092 328.428 488.501 329.367 489.319 330.057C490.137 330.746 491.156 331.091 492.376 331.091Z"/>
</mask>
<path d="M309.573 332V314.545H310.925V317.182H311.062C311.395 316.303 311.971 315.606 312.789 315.091C313.607 314.576 314.592 314.318 315.744 314.318C317.009 314.318 318.028 314.621 318.8 315.227C319.581 315.833 320.141 316.655 320.482 317.693H320.607C320.948 316.67 321.558 315.852 322.437 315.239C323.323 314.625 324.414 314.318 325.709 314.318C327.399 314.318 328.687 314.852 329.573 315.92C330.467 316.981 330.914 318.436 330.914 320.284V332H329.528V320.284C329.528 318.83 329.179 317.686 328.482 316.852C327.785 316.019 326.763 315.602 325.414 315.602C323.975 315.602 322.869 316.053 322.096 316.955C321.323 317.856 320.937 319.004 320.937 320.398V332H319.55V320.193C319.55 318.837 319.209 317.735 318.528 316.886C317.846 316.03 316.823 315.602 315.459 315.602C314.535 315.602 313.736 315.814 313.062 316.239C312.395 316.663 311.876 317.246 311.505 317.989C311.141 318.731 310.959 319.583 310.959 320.545V332H309.573ZM351.154 332.364C349.578 332.364 348.207 331.973 347.04 331.193C345.873 330.413 344.972 329.345 344.336 327.989C343.699 326.633 343.381 325.087 343.381 323.352C343.381 321.61 343.699 320.057 344.336 318.693C344.979 317.33 345.862 316.254 346.983 315.466C348.104 314.678 349.385 314.284 350.824 314.284C351.801 314.284 352.726 314.481 353.597 314.875C354.476 315.261 355.248 315.822 355.915 316.557C356.589 317.292 357.116 318.178 357.495 319.216C357.881 320.254 358.074 321.42 358.074 322.716V323.58H344.256V322.318H356.688C356.688 321.053 356.43 319.913 355.915 318.898C355.4 317.883 354.699 317.076 353.813 316.477C352.926 315.879 351.93 315.58 350.824 315.58C349.665 315.58 348.631 315.905 347.722 316.557C346.82 317.201 346.104 318.072 345.574 319.17C345.051 320.269 344.779 321.496 344.756 322.852V323.42C344.756 324.875 345.01 326.182 345.517 327.341C346.032 328.492 346.767 329.405 347.722 330.08C348.676 330.746 349.82 331.08 351.154 331.08C352.108 331.08 352.923 330.92 353.597 330.602C354.279 330.277 354.836 329.883 355.267 329.42C355.699 328.958 356.025 328.511 356.245 328.08L357.506 328.591C357.241 329.174 356.828 329.758 356.267 330.341C355.714 330.917 355.01 331.398 354.154 331.784C353.305 332.17 352.305 332.364 351.154 332.364ZM377.072 332.364C375.587 332.364 374.281 331.973 373.152 331.193C372.023 330.405 371.141 329.33 370.504 327.966C369.875 326.602 369.561 325.057 369.561 323.33C369.561 321.602 369.879 320.057 370.516 318.693C371.152 317.33 372.034 316.254 373.163 315.466C374.292 314.678 375.591 314.284 377.061 314.284C378.167 314.284 379.175 314.511 380.084 314.966C381 315.42 381.758 316.053 382.356 316.864C382.962 317.674 383.349 318.614 383.516 319.682H382.106C381.879 318.5 381.311 317.523 380.402 316.75C379.5 315.97 378.391 315.58 377.072 315.58C375.891 315.58 374.837 315.913 373.913 316.58C372.989 317.239 372.262 318.152 371.731 319.318C371.201 320.477 370.936 321.807 370.936 323.307C370.936 324.784 371.194 326.11 371.709 327.284C372.224 328.451 372.944 329.375 373.868 330.057C374.792 330.739 375.86 331.08 377.072 331.08C377.928 331.08 378.709 330.909 379.413 330.568C380.125 330.227 380.72 329.742 381.197 329.114C381.675 328.485 381.989 327.75 382.141 326.909H383.55C383.383 327.985 383.004 328.932 382.413 329.75C381.822 330.568 381.069 331.208 380.152 331.67C379.235 332.133 378.209 332.364 377.072 332.364ZM400.582 332.375C399.574 332.375 398.65 332.174 397.809 331.773C396.976 331.371 396.305 330.784 395.798 330.011C395.298 329.239 395.048 328.299 395.048 327.193C395.048 326.466 395.177 325.826 395.434 325.273C395.692 324.72 396.089 324.242 396.627 323.841C397.165 323.439 397.855 323.11 398.696 322.852C399.536 322.587 400.54 322.383 401.707 322.239C402.593 322.133 403.385 322.03 404.082 321.932C404.779 321.826 405.324 321.663 405.718 321.443C406.12 321.223 406.321 320.89 406.321 320.443V319.716C406.321 318.443 405.919 317.432 405.116 316.682C404.313 315.932 403.207 315.557 401.798 315.557C400.548 315.557 399.495 315.833 398.639 316.386C397.79 316.932 397.196 317.636 396.855 318.5L395.548 318.011C395.881 317.178 396.362 316.485 396.991 315.932C397.627 315.379 398.355 314.966 399.173 314.693C399.999 314.42 400.862 314.284 401.764 314.284C402.544 314.284 403.286 314.394 403.991 314.614C404.703 314.833 405.336 315.167 405.889 315.614C406.449 316.061 406.892 316.633 407.218 317.33C407.544 318.019 407.707 318.845 407.707 319.807V332H406.321V328.852H406.218C405.915 329.504 405.499 330.098 404.968 330.636C404.446 331.167 403.813 331.591 403.071 331.909C402.336 332.22 401.506 332.375 400.582 332.375ZM400.718 331.091C401.809 331.091 402.775 330.826 403.616 330.295C404.464 329.758 405.127 329.023 405.605 328.091C406.082 327.159 406.321 326.102 406.321 324.92V322.352C406.146 322.504 405.892 322.64 405.559 322.761C405.233 322.875 404.862 322.977 404.446 323.068C404.036 323.152 403.605 323.227 403.15 323.295C402.703 323.356 402.267 323.413 401.843 323.466C400.571 323.617 399.533 323.852 398.73 324.17C397.934 324.481 397.351 324.89 396.98 325.398C396.616 325.905 396.434 326.519 396.434 327.239C396.434 328.428 396.843 329.367 397.661 330.057C398.48 330.746 399.499 331.091 400.718 331.091ZM405.002 312.636L401.946 309.239L398.889 312.636H397.457V312.511L401.48 308.091H402.411L406.434 312.511V312.636H405.002ZM422.586 320.682V332H421.199V314.545H422.552V317.307H422.688C423.097 316.405 423.752 315.682 424.654 315.136C425.555 314.591 426.627 314.318 427.87 314.318C429.044 314.318 430.074 314.568 430.961 315.068C431.855 315.568 432.552 316.28 433.052 317.205C433.559 318.121 433.813 319.216 433.813 320.489V332H432.427V320.545C432.427 319.061 431.983 317.867 431.097 316.966C430.218 316.057 429.055 315.602 427.608 315.602C426.639 315.602 425.775 315.814 425.018 316.239C424.26 316.663 423.665 317.258 423.233 318.023C422.802 318.78 422.586 319.667 422.586 320.682ZM447.323 332V314.545H448.698V332H447.323ZM448.016 311.455C447.713 311.455 447.448 311.348 447.22 311.136C447.001 310.924 446.891 310.667 446.891 310.364C446.891 310.061 447.001 309.803 447.22 309.591C447.44 309.379 447.705 309.273 448.016 309.273C448.319 309.273 448.58 309.379 448.8 309.591C449.027 309.803 449.141 310.061 449.141 310.364C449.141 310.667 449.031 310.924 448.811 311.136C448.591 311.348 448.326 311.455 448.016 311.455ZM468.73 332.364C467.245 332.364 465.938 331.973 464.809 331.193C463.681 330.405 462.798 329.33 462.162 327.966C461.533 326.602 461.218 325.057 461.218 323.33C461.218 321.602 461.537 320.057 462.173 318.693C462.809 317.33 463.692 316.254 464.821 315.466C465.95 314.678 467.249 314.284 468.718 314.284C469.825 314.284 470.832 314.511 471.741 314.966C472.658 315.42 473.415 316.053 474.014 316.864C474.62 317.674 475.006 318.614 475.173 319.682H473.764C473.537 318.5 472.968 317.523 472.059 316.75C471.158 315.97 470.048 315.58 468.73 315.58C467.548 315.58 466.495 315.913 465.571 316.58C464.647 317.239 463.919 318.152 463.389 319.318C462.859 320.477 462.593 321.807 462.593 323.307C462.593 324.784 462.851 326.11 463.366 327.284C463.881 328.451 464.601 329.375 465.525 330.057C466.45 330.739 467.518 331.08 468.73 331.08C469.586 331.08 470.366 330.909 471.071 330.568C471.783 330.227 472.378 329.742 472.855 329.114C473.332 328.485 473.647 327.75 473.798 326.909H475.207C475.04 327.985 474.662 328.932 474.071 329.75C473.48 330.568 472.726 331.208 471.809 331.67C470.893 332.133 469.866 332.364 468.73 332.364ZM492.239 332.375C491.232 332.375 490.308 332.174 489.467 331.773C488.633 331.371 487.963 330.784 487.455 330.011C486.955 329.239 486.705 328.299 486.705 327.193C486.705 326.466 486.834 325.826 487.092 325.273C487.349 324.72 487.747 324.242 488.285 323.841C488.823 323.439 489.512 323.11 490.353 322.852C491.194 322.587 492.198 322.383 493.364 322.239C494.251 322.133 495.042 322.03 495.739 321.932C496.436 321.826 496.982 321.663 497.376 321.443C497.777 321.223 497.978 320.89 497.978 320.443V319.716C497.978 318.443 497.577 317.432 496.773 316.682C495.97 315.932 494.864 315.557 493.455 315.557C492.205 315.557 491.152 315.833 490.296 316.386C489.448 316.932 488.853 317.636 488.512 318.5L487.205 318.011C487.539 317.178 488.02 316.485 488.648 315.932C489.285 315.379 490.012 314.966 490.83 314.693C491.656 314.42 492.52 314.284 493.421 314.284C494.202 314.284 494.944 314.394 495.648 314.614C496.361 314.833 496.993 315.167 497.546 315.614C498.107 316.061 498.55 316.633 498.876 317.33C499.202 318.019 499.364 318.845 499.364 319.807V332H497.978V328.852H497.876C497.573 329.504 497.156 330.098 496.626 330.636C496.103 331.167 495.47 331.591 494.728 331.909C493.993 332.22 493.164 332.375 492.239 332.375ZM492.376 331.091C493.467 331.091 494.433 330.826 495.273 330.295C496.122 329.758 496.785 329.023 497.262 328.091C497.739 327.159 497.978 326.102 497.978 324.92V322.352C497.804 322.504 497.55 322.64 497.217 322.761C496.891 322.875 496.52 322.977 496.103 323.068C495.694 323.152 495.262 323.227 494.808 323.295C494.361 323.356 493.925 323.413 493.501 323.466C492.228 323.617 491.19 323.852 490.387 324.17C489.592 324.481 489.008 324.89 488.637 325.398C488.273 325.905 488.092 326.519 488.092 327.239C488.092 328.428 488.501 329.367 489.319 330.057C490.137 330.746 491.156 331.091 492.376 331.091Z" fill="#B2B3B7"/>
<path d="M309.573 332H308.573V333H309.573V332ZM309.573 314.545V313.545H308.573V314.545H309.573ZM310.925 314.545H311.925V313.545H310.925V314.545ZM310.925 317.182H309.925V318.182H310.925V317.182ZM311.062 317.182V318.182H311.752L311.997 317.536L311.062 317.182ZM312.789 315.091L312.256 314.245L312.256 314.245L312.789 315.091ZM318.8 315.227L318.183 316.014L318.187 316.017L318.8 315.227ZM320.482 317.693L319.532 318.005L319.758 318.693H320.482V317.693ZM320.607 317.693V318.693H321.328L321.556 318.009L320.607 317.693ZM322.437 315.239L321.868 314.416L321.864 314.419L322.437 315.239ZM329.573 315.92L328.804 316.559L328.809 316.565L329.573 315.92ZM330.914 332V333H331.914V332H330.914ZM329.528 332H328.528V333H329.528V332ZM322.096 316.955L322.855 317.605L322.855 317.605L322.096 316.955ZM320.937 332V333H321.937V332H320.937ZM319.55 332H318.55V333H319.55V332ZM318.528 316.886L317.745 317.509L317.748 317.513L318.528 316.886ZM313.062 316.239L312.529 315.392L312.525 315.395L313.062 316.239ZM311.505 317.989L310.61 317.541L310.607 317.549L311.505 317.989ZM310.959 332V333H311.959V332H310.959ZM309.573 332H310.573V314.545H309.573H308.573V332H309.573ZM309.573 314.545V315.545H310.925V314.545V313.545H309.573V314.545ZM310.925 314.545H309.925V317.182H310.925H311.925V314.545H310.925ZM310.925 317.182V318.182H311.062V317.182V316.182H310.925V317.182ZM311.062 317.182L311.997 317.536C312.251 316.867 312.682 316.34 313.322 315.937L312.789 315.091L312.256 314.245C311.26 314.872 310.54 315.739 310.127 316.827L311.062 317.182ZM312.789 315.091L313.322 315.937C313.952 315.54 314.744 315.318 315.744 315.318V314.318V313.318C314.44 313.318 313.262 313.611 312.256 314.245L312.789 315.091ZM315.744 314.318V315.318C316.85 315.318 317.632 315.582 318.183 316.014L318.8 315.227L319.418 314.44C318.424 313.661 317.167 313.318 315.744 313.318V314.318ZM318.8 315.227L318.187 316.017C318.794 316.488 319.247 317.136 319.532 318.005L320.482 317.693L321.432 317.381C321.036 316.175 320.368 315.179 319.414 314.438L318.8 315.227ZM320.482 317.693V318.693H320.607V317.693V316.693H320.482V317.693ZM320.607 317.693L321.556 318.009C321.829 317.189 322.308 316.548 323.009 316.059L322.437 315.239L321.864 314.419C320.808 315.156 320.067 316.152 319.659 317.377L320.607 317.693ZM322.437 315.239L323.006 316.061C323.694 315.585 324.576 315.318 325.709 315.318V314.318V313.318C324.252 313.318 322.952 313.665 321.868 314.416L322.437 315.239ZM325.709 314.318V315.318C327.172 315.318 328.148 315.769 328.804 316.559L329.573 315.92L330.343 315.282C329.225 313.935 327.625 313.318 325.709 313.318V314.318ZM329.573 315.92L328.809 316.565C329.506 317.393 329.914 318.592 329.914 320.284H330.914H331.914C331.914 318.279 331.428 316.569 330.338 315.276L329.573 315.92ZM330.914 320.284H329.914V332H330.914H331.914V320.284H330.914ZM330.914 332V331H329.528V332V333H330.914V332ZM329.528 332H330.528V320.284H329.528H328.528V332H329.528ZM329.528 320.284H330.528C330.528 318.675 330.141 317.277 329.249 316.211L328.482 316.852L327.715 317.494C328.217 318.094 328.528 318.984 328.528 320.284H329.528ZM328.482 316.852L329.249 316.211C328.317 315.097 326.981 314.602 325.414 314.602V315.602V316.602C326.544 316.602 327.253 316.941 327.715 317.494L328.482 316.852ZM325.414 315.602V314.602C323.751 314.602 322.339 315.134 321.337 316.304L322.096 316.955L322.855 317.605C323.398 316.972 324.199 316.602 325.414 316.602V315.602ZM322.096 316.955L321.337 316.304C320.382 317.417 319.937 318.809 319.937 320.398H320.937H321.937C321.937 319.199 322.264 318.295 322.855 317.605L322.096 316.955ZM320.937 320.398H319.937V332H320.937H321.937V320.398H320.937ZM320.937 332V331H319.55V332V333H320.937V332ZM319.55 332H320.55V320.193H319.55H318.55V332H319.55ZM319.55 320.193H320.55C320.55 318.667 320.164 317.326 319.307 316.26L318.528 316.886L317.748 317.513C318.255 318.144 318.55 319.008 318.55 320.193H319.55ZM318.528 316.886L319.31 316.263C318.392 315.111 317.045 314.602 315.459 314.602V315.602V316.602C316.601 316.602 317.299 316.949 317.745 317.509L318.528 316.886ZM315.459 315.602V314.602C314.378 314.602 313.387 314.852 312.529 315.392L313.062 316.239L313.594 317.085C314.085 316.776 314.693 316.602 315.459 316.602V315.602ZM313.062 316.239L312.525 315.395C311.697 315.922 311.059 316.645 310.611 317.541L311.505 317.989L312.399 318.436C312.694 317.847 313.093 317.404 313.599 317.082L313.062 316.239ZM311.505 317.989L310.607 317.549C310.166 318.449 309.959 319.456 309.959 320.545H310.959H311.959C311.959 319.711 312.117 319.013 312.403 318.429L311.505 317.989ZM310.959 320.545H309.959V332H310.959H311.959V320.545H310.959ZM310.959 332V331H309.573V332V333H310.959V332ZM344.336 327.989L345.241 327.564L345.241 327.564L344.336 327.989ZM344.336 318.693L343.431 318.266L343.429 318.27L344.336 318.693ZM346.983 315.466L346.408 314.648L346.408 314.648L346.983 315.466ZM353.597 314.875L353.185 315.786L353.194 315.79L353.597 314.875ZM355.915 316.557L355.174 317.229L355.178 317.233L355.915 316.557ZM357.495 319.216L356.555 319.559L356.557 319.565L357.495 319.216ZM358.074 323.58V324.58H359.074V323.58H358.074ZM344.256 323.58H343.256V324.58H344.256V323.58ZM344.256 322.318V321.318H343.256V322.318H344.256ZM356.688 322.318V323.318H357.688V322.318H356.688ZM355.915 318.898L355.023 319.35L355.023 319.35L355.915 318.898ZM353.813 316.477L353.253 317.306L353.253 317.306L353.813 316.477ZM347.722 316.557L348.303 317.371L348.304 317.37L347.722 316.557ZM345.574 319.17L344.674 318.736L344.671 318.741L345.574 319.17ZM344.756 322.852L343.756 322.836L343.756 322.844V322.852H344.756ZM345.517 327.341L344.601 327.742L344.605 327.749L345.517 327.341ZM347.722 330.08L347.145 330.896L347.149 330.899L347.722 330.08ZM353.597 330.602L354.024 331.507L354.028 331.505L353.597 330.602ZM355.267 329.42L355.998 330.103L355.998 330.103L355.267 329.42ZM356.245 328.08L356.62 327.153L355.77 326.808L355.353 327.626L356.245 328.08ZM357.506 328.591L358.416 329.005L358.848 328.056L357.882 327.664L357.506 328.591ZM356.267 330.341L355.546 329.648L355.546 329.648L356.267 330.341ZM354.154 331.784L353.742 330.873L353.739 330.874L354.154 331.784ZM351.154 332.364V331.364C349.751 331.364 348.578 331.019 347.596 330.362L347.04 331.193L346.484 332.024C347.835 332.928 349.405 333.364 351.154 333.364V332.364ZM347.04 331.193L347.596 330.362C346.591 329.69 345.805 328.767 345.241 327.564L344.336 327.989L343.43 328.413C344.138 329.923 345.156 331.136 346.484 332.024L347.04 331.193ZM344.336 327.989L345.241 327.564C344.676 326.36 344.381 324.963 344.381 323.352H343.381H342.381C342.381 325.211 342.722 326.905 343.43 328.413L344.336 327.989ZM343.381 323.352H344.381C344.381 321.733 344.676 320.328 345.242 319.116L344.336 318.693L343.429 318.27C342.722 319.786 342.381 321.487 342.381 323.352H343.381ZM344.336 318.693L345.24 319.12C345.817 317.897 346.593 316.963 347.558 316.284L346.983 315.466L346.408 314.648C345.131 315.545 344.142 316.762 343.431 318.266L344.336 318.693ZM346.983 315.466L347.558 316.284C348.502 315.621 349.58 315.284 350.824 315.284V314.284V313.284C349.19 313.284 347.707 313.735 346.408 314.648L346.983 315.466ZM350.824 314.284V315.284C351.663 315.284 352.446 315.452 353.185 315.786L353.597 314.875L354.009 313.964C353.005 313.51 351.94 313.284 350.824 313.284V314.284ZM353.597 314.875L353.194 315.79C353.94 316.118 354.599 316.594 355.174 317.229L355.915 316.557L356.656 315.885C355.898 315.05 355.011 314.404 353.999 313.96L353.597 314.875ZM355.915 316.557L355.178 317.233C355.755 317.861 356.217 318.631 356.555 319.559L357.495 319.216L358.434 318.873C358.015 317.725 357.424 316.722 356.652 315.881L355.915 316.557ZM357.495 319.216L356.557 319.565C356.896 320.474 357.074 321.52 357.074 322.716H358.074H359.074C359.074 321.321 358.866 320.034 358.432 318.867L357.495 319.216ZM358.074 322.716H357.074V323.58H358.074H359.074V322.716H358.074ZM358.074 323.58V322.58H344.256V323.58V324.58H358.074V323.58ZM344.256 323.58H345.256V322.318H344.256H343.256V323.58H344.256ZM344.256 322.318V323.318H356.688V322.318V321.318H344.256V322.318ZM356.688 322.318H357.688C357.688 320.914 357.401 319.616 356.807 318.445L355.915 318.898L355.023 319.35C355.46 320.21 355.688 321.193 355.688 322.318H356.688ZM355.915 318.898L356.807 318.445C356.22 317.289 355.409 316.348 354.372 315.649L353.813 316.477L353.253 317.306C353.99 317.803 354.58 318.477 355.023 319.35L355.915 318.898ZM353.813 316.477L354.372 315.649C353.315 314.934 352.122 314.58 350.824 314.58V315.58V316.58C351.738 316.58 352.538 316.823 353.253 317.306L353.813 316.477ZM350.824 315.58V314.58C349.464 314.58 348.225 314.966 347.139 315.744L347.722 316.557L348.304 317.37C349.037 316.844 349.866 316.58 350.824 316.58V315.58ZM347.722 316.557L347.141 315.743C346.089 316.494 345.269 317.502 344.674 318.736L345.574 319.17L346.475 319.605C346.94 318.642 347.552 317.907 348.303 317.371L347.722 316.557ZM345.574 319.17L344.671 318.741C344.08 319.983 343.781 321.353 343.756 322.836L344.756 322.852L345.756 322.869C345.776 321.639 346.023 320.555 346.477 319.6L345.574 319.17ZM344.756 322.852H343.756V323.42H344.756H345.756V322.852H344.756ZM344.756 323.42H343.756C343.756 324.993 344.031 326.439 344.601 327.742L345.517 327.341L346.433 326.94C345.989 325.925 345.756 324.757 345.756 323.42H344.756ZM345.517 327.341L344.605 327.749C345.187 329.051 346.032 330.11 347.145 330.896L347.722 330.08L348.299 329.263C347.502 328.7 346.878 327.934 346.43 326.933L345.517 327.341ZM347.722 330.08L347.149 330.899C348.295 331.7 349.646 332.08 351.154 332.08V331.08V330.08C349.994 330.08 349.058 329.793 348.294 329.26L347.722 330.08ZM351.154 331.08V332.08C352.216 332.08 353.184 331.903 354.024 331.507L353.597 330.602L353.17 329.698C352.661 329.938 352.001 330.08 351.154 330.08V331.08ZM353.597 330.602L354.028 331.505C354.801 331.135 355.466 330.672 355.998 330.103L355.267 329.42L354.537 328.738C354.205 329.093 353.756 329.418 353.166 329.7L353.597 330.602ZM355.267 329.42L355.998 330.103C356.475 329.592 356.863 329.069 357.136 328.533L356.245 328.08L355.353 327.626C355.187 327.953 354.923 328.324 354.537 328.738L355.267 329.42ZM356.245 328.08L355.869 329.006L357.13 329.518L357.506 328.591L357.882 327.664L356.62 327.153L356.245 328.08ZM357.506 328.591L356.596 328.177C356.388 328.634 356.048 329.126 355.546 329.648L356.267 330.341L356.988 331.034C357.608 330.389 358.094 329.714 358.416 329.005L357.506 328.591ZM356.267 330.341L355.546 329.648C355.096 330.117 354.502 330.53 353.742 330.873L354.154 331.784L354.565 332.696C355.517 332.266 356.333 331.716 356.989 331.034L356.267 330.341ZM354.154 331.784L353.739 330.874C353.048 331.189 352.195 331.364 351.154 331.364V332.364V333.364C352.415 333.364 353.563 333.152 354.568 332.694L354.154 331.784ZM373.152 331.193L372.58 332.013L372.583 332.016L373.152 331.193ZM370.504 327.966L369.596 328.385L369.598 328.389L370.504 327.966ZM370.516 318.693L369.609 318.27L369.609 318.27L370.516 318.693ZM373.163 315.466L372.591 314.646L372.591 314.646L373.163 315.466ZM380.084 314.966L379.636 315.86L379.639 315.862L380.084 314.966ZM382.356 316.864L381.552 317.458L381.556 317.462L382.356 316.864ZM383.516 319.682V320.682H384.684L384.504 319.528L383.516 319.682ZM382.106 319.682L381.124 319.871L381.28 320.682H382.106V319.682ZM380.402 316.75L379.747 317.506L379.754 317.512L380.402 316.75ZM373.913 316.58L374.494 317.394L374.498 317.391L373.913 316.58ZM371.731 319.318L372.641 319.734L372.642 319.732L371.731 319.318ZM371.709 327.284L370.793 327.686L370.794 327.688L371.709 327.284ZM373.868 330.057L374.461 329.252L374.461 329.252L373.868 330.057ZM379.413 330.568L378.981 329.666L378.978 329.668L379.413 330.568ZM381.197 329.114L380.401 328.509L380.401 328.509L381.197 329.114ZM382.141 326.909V325.909H381.305L381.156 326.732L382.141 326.909ZM383.55 326.909L384.538 327.062L384.716 325.909H383.55V326.909ZM380.152 331.67L379.702 330.778L379.702 330.778L380.152 331.67ZM377.072 332.364V331.364C375.773 331.364 374.668 331.026 373.721 330.371L373.152 331.193L372.583 332.016C373.893 332.921 375.402 333.364 377.072 333.364V332.364ZM373.152 331.193L373.724 330.373C372.753 329.695 371.979 328.763 371.41 327.543L370.504 327.966L369.598 328.389C370.302 329.897 371.293 331.115 372.58 332.013L373.152 331.193ZM370.504 327.966L371.412 327.547C370.852 326.333 370.561 324.934 370.561 323.33H369.561H368.561C368.561 325.18 368.898 326.871 369.596 328.385L370.504 327.966ZM369.561 323.33H370.561C370.561 321.727 370.856 320.329 371.422 319.116L370.516 318.693L369.609 318.27C368.903 319.785 368.561 321.478 368.561 323.33H369.561ZM370.516 318.693L371.422 319.116C371.991 317.897 372.764 316.964 373.736 316.286L373.163 315.466L372.591 314.646C371.305 315.544 370.313 316.763 369.609 318.27L370.516 318.693ZM373.163 315.466L373.736 316.286C374.685 315.623 375.781 315.284 377.061 315.284V314.284V313.284C375.401 313.284 373.899 313.733 372.591 314.646L373.163 315.466ZM377.061 314.284V315.284C378.026 315.284 378.878 315.481 379.636 315.86L380.084 314.966L380.531 314.071C379.471 313.542 378.308 313.284 377.061 313.284V314.284ZM380.084 314.966L379.639 315.862C380.416 316.247 381.049 316.777 381.552 317.458L382.356 316.864L383.161 316.27C382.467 315.329 381.585 314.594 380.528 314.07L380.084 314.966ZM382.356 316.864L381.556 317.462C382.057 318.133 382.384 318.918 382.527 319.836L383.516 319.682L384.504 319.528C384.313 318.31 383.868 317.215 383.157 316.265L382.356 316.864ZM383.516 319.682V318.682H382.106V319.682V320.682H383.516V319.682ZM382.106 319.682L383.088 319.493C382.819 318.09 382.134 316.91 381.05 315.988L380.402 316.75L379.754 317.512C380.488 318.136 380.94 318.91 381.124 319.871L382.106 319.682ZM380.402 316.75L381.056 315.994C379.953 315.039 378.604 314.58 377.072 314.58V315.58V316.58C378.177 316.58 379.047 316.9 379.747 317.506L380.402 316.75ZM377.072 315.58V314.58C375.689 314.58 374.429 314.974 373.328 315.769L373.913 316.58L374.498 317.391C375.246 316.852 376.092 316.58 377.072 316.58V315.58ZM373.913 316.58L373.333 315.765C372.247 316.539 371.415 317.599 370.821 318.904L371.731 319.318L372.642 319.732C373.109 318.704 373.731 317.938 374.494 317.394L373.913 316.58ZM371.731 319.318L370.822 318.902C370.222 320.213 369.936 321.688 369.936 323.307H370.936H371.936C371.936 321.925 372.18 320.742 372.641 319.734L371.731 319.318ZM370.936 323.307H369.936C369.936 324.901 370.214 326.367 370.793 327.686L371.709 327.284L372.624 326.882C372.173 325.853 371.936 324.667 371.936 323.307H370.936ZM371.709 327.284L370.794 327.688C371.371 328.996 372.195 330.065 373.274 330.862L373.868 330.057L374.461 329.252C373.692 328.685 373.076 327.906 372.623 326.88L371.709 327.284ZM373.868 330.057L373.274 330.862C374.38 331.677 375.659 332.08 377.072 332.08V331.08V330.08C376.061 330.08 375.204 329.8 374.461 329.252L373.868 330.057ZM377.072 331.08V332.08C378.065 332.08 378.996 331.881 379.849 331.468L379.413 330.568L378.978 329.668C378.421 329.937 377.792 330.08 377.072 330.08V331.08ZM379.413 330.568L379.845 331.47C380.701 331.061 381.42 330.474 381.994 329.718L381.197 329.114L380.401 328.509C380.02 329.011 379.55 329.394 378.981 329.666L379.413 330.568ZM381.197 329.114L381.994 329.718C382.574 328.954 382.948 328.069 383.125 327.086L382.141 326.909L381.156 326.732C381.03 327.431 380.775 328.016 380.401 328.509L381.197 329.114ZM382.141 326.909V327.909H383.55V326.909V325.909H382.141V326.909ZM383.55 326.909L382.561 326.756C382.417 327.688 382.094 328.484 381.603 329.165L382.413 329.75L383.224 330.335C383.914 329.379 384.349 328.282 384.538 327.062L383.55 326.909ZM382.413 329.75L381.603 329.165C381.107 329.851 380.478 330.386 379.702 330.778L380.152 331.67L380.602 332.563C381.659 332.03 382.538 331.286 383.224 330.335L382.413 329.75ZM380.152 331.67L379.702 330.778C378.939 331.162 378.069 331.364 377.072 331.364V332.364V333.364C378.348 333.364 379.531 333.103 380.602 332.563L380.152 331.67ZM397.809 331.773L397.375 332.674L397.378 332.675L397.809 331.773ZM395.798 330.011L394.958 330.555L394.962 330.56L395.798 330.011ZM395.434 325.273L394.528 324.851L394.528 324.851L395.434 325.273ZM396.627 323.841L397.226 324.642L397.226 324.642L396.627 323.841ZM398.696 322.852L398.988 323.808L398.996 323.806L398.696 322.852ZM401.707 322.239L401.588 321.246L401.584 321.246L401.707 322.239ZM404.082 321.932L404.222 322.922L404.232 322.92L404.082 321.932ZM405.718 321.443L405.238 320.566L405.231 320.57L405.718 321.443ZM405.116 316.682L404.433 317.413L404.433 317.413L405.116 316.682ZM398.639 316.386L399.179 317.228L399.181 317.226L398.639 316.386ZM396.855 318.5L396.504 319.437L397.424 319.781L397.785 318.867L396.855 318.5ZM395.548 318.011L394.619 317.64L394.239 318.59L395.198 318.948L395.548 318.011ZM396.991 315.932L396.335 315.177L396.331 315.181L396.991 315.932ZM399.173 314.693L398.859 313.744L398.857 313.744L399.173 314.693ZM403.991 314.614L403.693 315.568L403.696 315.569L403.991 314.614ZM405.889 315.614L405.26 316.391L405.265 316.396L405.889 315.614ZM407.218 317.33L406.312 317.753L406.314 317.757L407.218 317.33ZM407.707 332V333H408.707V332H407.707ZM406.321 332H405.321V333H406.321V332ZM406.321 328.852H407.321V327.852H406.321V328.852ZM406.218 328.852V327.852H405.58L405.312 328.431L406.218 328.852ZM404.968 330.636L404.256 329.934L404.256 329.934L404.968 330.636ZM403.071 331.909L403.46 332.83L403.464 332.828L403.071 331.909ZM403.616 330.295L404.149 331.141L404.151 331.14L403.616 330.295ZM405.605 328.091L406.495 328.547L406.495 328.547L405.605 328.091ZM406.321 322.352H407.321V320.158L405.664 321.598L406.321 322.352ZM405.559 322.761L405.889 323.706L405.901 323.701L405.559 322.761ZM404.446 323.068L404.645 324.048L404.659 324.045L404.446 323.068ZM403.15 323.295L403.284 324.286L403.298 324.284L403.15 323.295ZM401.843 323.466L401.961 324.459L401.967 324.458L401.843 323.466ZM398.73 324.17L399.093 325.102L399.098 325.1L398.73 324.17ZM396.98 325.398L396.172 324.807L396.167 324.815L396.98 325.398ZM397.661 330.057L397.017 330.822L397.017 330.822L397.661 330.057ZM405.002 312.636L404.259 313.305L404.557 313.636H405.002V312.636ZM401.946 309.239L402.689 308.57L401.946 307.743L401.202 308.57L401.946 309.239ZM398.889 312.636V313.636H399.334L399.632 313.305L398.889 312.636ZM397.457 312.636H396.457V313.636H397.457V312.636ZM397.457 312.511L396.717 311.838L396.457 312.124V312.511H397.457ZM401.48 308.091V307.091H401.038L400.74 307.418L401.48 308.091ZM402.411 308.091L403.151 307.418L402.853 307.091H402.411V308.091ZM406.434 312.511H407.434V312.124L407.174 311.838L406.434 312.511ZM406.434 312.636V313.636H407.434V312.636H406.434ZM400.582 332.375V331.375C399.711 331.375 398.936 331.202 398.24 330.87L397.809 331.773L397.378 332.675C398.364 333.146 399.438 333.375 400.582 333.375V332.375ZM397.809 331.773L398.243 330.872C397.573 330.549 397.042 330.083 396.634 329.462L395.798 330.011L394.962 330.56C395.569 331.485 396.379 332.193 397.375 332.674L397.809 331.773ZM395.798 330.011L396.637 329.468C396.262 328.887 396.048 328.146 396.048 327.193H395.048H394.048C394.048 328.453 394.334 329.59 394.958 330.555L395.798 330.011ZM395.048 327.193H396.048C396.048 326.584 396.155 326.093 396.341 325.695L395.434 325.273L394.528 324.851C394.198 325.559 394.048 326.348 394.048 327.193H395.048ZM395.434 325.273L396.341 325.695C396.522 325.306 396.807 324.955 397.226 324.642L396.627 323.841L396.029 323.04C395.372 323.53 394.862 324.133 394.528 324.851L395.434 325.273ZM396.627 323.841L397.226 324.642C397.648 324.327 398.225 324.042 398.988 323.808L398.696 322.852L398.403 321.896C397.484 322.177 396.683 322.552 396.029 323.04L396.627 323.841ZM398.696 322.852L398.996 323.806C399.764 323.564 400.705 323.37 401.829 323.231L401.707 322.239L401.584 321.246C400.376 321.395 399.309 321.61 398.395 321.899L398.696 322.852ZM401.707 322.239L401.826 323.232C402.717 323.125 403.516 323.022 404.222 322.922L404.082 321.932L403.942 320.942C403.254 321.039 402.469 321.14 401.588 321.246L401.707 322.239ZM404.082 321.932L404.232 322.92C404.988 322.805 405.665 322.618 406.205 322.317L405.718 321.443L405.231 320.57C404.983 320.708 404.569 320.846 403.931 320.943L404.082 321.932ZM405.718 321.443L406.198 322.32C406.527 322.141 406.82 321.888 407.027 321.544C407.234 321.2 407.321 320.821 407.321 320.443H406.321H405.321C405.321 320.48 405.316 320.5 405.314 320.508C405.313 320.515 405.312 320.515 405.313 320.512C405.315 320.51 405.314 320.513 405.305 320.521C405.296 320.529 405.276 320.545 405.238 320.566L405.718 321.443ZM406.321 320.443H407.321V319.716H406.321H405.321V320.443H406.321ZM406.321 319.716H407.321C407.321 318.214 406.837 316.921 405.799 315.951L405.116 316.682L404.433 317.413C405.001 317.943 405.321 318.672 405.321 319.716H406.321ZM405.116 316.682L405.799 315.951C404.762 314.983 403.386 314.557 401.798 314.557V315.557V316.557C403.028 316.557 403.863 316.88 404.433 317.413L405.116 316.682ZM401.798 315.557V314.557C400.399 314.557 399.147 314.867 398.096 315.546L398.639 316.386L399.181 317.226C399.842 316.799 400.696 316.557 401.798 316.557V315.557ZM398.639 316.386L398.098 315.545C397.089 316.194 396.349 317.057 395.924 318.133L396.855 318.5L397.785 318.867C398.042 318.215 398.491 317.67 399.179 317.228L398.639 316.386ZM396.855 318.5L397.205 317.563L395.898 317.075L395.548 318.011L395.198 318.948L396.504 319.437L396.855 318.5ZM395.548 318.011L396.476 318.383C396.756 317.684 397.149 317.125 397.651 316.683L396.991 315.932L396.331 315.181C395.575 315.845 395.007 316.672 394.619 317.64L395.548 318.011ZM396.991 315.932L397.647 316.687C398.182 316.222 398.793 315.874 399.489 315.642L399.173 314.693L398.857 313.744C397.916 314.058 397.073 314.536 396.335 315.177L396.991 315.932ZM399.173 314.693L399.486 315.643C400.207 315.405 400.965 315.284 401.764 315.284V314.284V313.284C400.76 313.284 399.79 313.436 398.859 313.744L399.173 314.693ZM401.764 314.284V315.284C402.449 315.284 403.09 315.38 403.693 315.568L403.991 314.614L404.289 313.659C403.482 313.408 402.639 313.284 401.764 313.284V314.284ZM403.991 314.614L403.696 315.569C404.293 315.753 404.811 316.028 405.26 316.391L405.889 315.614L406.517 314.836C405.861 314.305 405.114 313.913 404.286 313.658L403.991 314.614ZM405.889 315.614L405.265 316.396C405.697 316.739 406.047 317.185 406.312 317.753L407.218 317.33L408.124 316.906C407.738 316.08 407.202 315.382 406.512 314.832L405.889 315.614ZM407.218 317.33L406.314 317.757C406.562 318.282 406.707 318.955 406.707 319.807H407.707H408.707C408.707 318.734 408.526 317.756 408.122 316.902L407.218 317.33ZM407.707 319.807H406.707V332H407.707H408.707V319.807H407.707ZM407.707 332V331H406.321V332V333H407.707V332ZM406.321 332H407.321V328.852H406.321H405.321V332H406.321ZM406.321 328.852V327.852H406.218V328.852V329.852H406.321V328.852ZM406.218 328.852L405.312 328.431C405.059 328.973 404.71 329.474 404.256 329.934L404.968 330.636L405.68 331.338C406.287 330.723 406.771 330.035 407.125 329.274L406.218 328.852ZM404.968 330.636L404.256 329.934C403.832 330.365 403.31 330.718 402.677 330.99L403.071 331.909L403.464 332.828C404.316 332.463 405.059 331.969 405.68 331.338L404.968 330.636ZM403.071 331.909L402.681 330.988C402.087 331.239 401.393 331.375 400.582 331.375V332.375V333.375C401.619 333.375 402.584 333.2 403.46 332.83L403.071 331.909ZM400.718 331.091V332.091C401.979 332.091 403.133 331.782 404.149 331.141L403.616 330.295L403.083 329.45C402.417 329.87 401.639 330.091 400.718 330.091V331.091ZM403.616 330.295L404.151 331.14C405.157 330.502 405.94 329.631 406.495 328.547L405.605 328.091L404.715 327.635C404.315 328.415 403.772 329.013 403.081 329.451L403.616 330.295ZM405.605 328.091L406.495 328.547C407.053 327.457 407.321 326.24 407.321 324.92H406.321H405.321C405.321 325.964 405.111 326.862 404.715 327.635L405.605 328.091ZM406.321 324.92H407.321V322.352H406.321H405.321V324.92H406.321ZM406.321 322.352L405.664 321.598C405.619 321.637 405.491 321.722 405.217 321.822L405.559 322.761L405.901 323.701C406.294 323.558 406.674 323.37 406.977 323.107L406.321 322.352ZM405.559 322.761L405.23 321.817C404.95 321.915 404.618 322.007 404.232 322.091L404.446 323.068L404.659 324.045C405.106 323.948 405.517 323.835 405.889 323.706L405.559 322.761ZM404.446 323.068L404.246 322.088C403.855 322.168 403.441 322.241 403.002 322.307L403.15 323.295L403.298 324.284C403.768 324.214 404.217 324.135 404.645 324.048L404.446 323.068ZM403.15 323.295L403.016 322.305C402.572 322.365 402.14 322.421 401.719 322.474L401.843 323.466L401.967 324.458C402.395 324.405 402.834 324.347 403.284 324.286L403.15 323.295ZM401.843 323.466L401.725 322.473C400.404 322.63 399.273 322.879 398.361 323.241L398.73 324.17L399.098 325.1C399.792 324.825 400.737 324.605 401.961 324.459L401.843 323.466ZM398.73 324.17L398.366 323.239C397.455 323.595 396.689 324.1 396.172 324.807L396.98 325.398L397.787 325.988C398.012 325.68 398.414 325.367 399.093 325.102L398.73 324.17ZM396.98 325.398L396.167 324.815C395.663 325.518 395.434 326.343 395.434 327.239H396.434H397.434C397.434 326.695 397.568 326.293 397.793 325.98L396.98 325.398ZM396.434 327.239H395.434C395.434 328.686 395.946 329.919 397.017 330.822L397.661 330.057L398.306 329.292C397.74 328.815 397.434 328.17 397.434 327.239H396.434ZM397.661 330.057L397.017 330.822C398.041 331.684 399.298 332.091 400.718 332.091V331.091V330.091C399.699 330.091 398.919 329.808 398.306 329.292L397.661 330.057ZM405.002 312.636L405.746 311.968L402.689 308.57L401.946 309.239L401.202 309.907L404.259 313.305L405.002 312.636ZM401.946 309.239L401.202 308.57L398.145 311.968L398.889 312.636L399.632 313.305L402.689 309.907L401.946 309.239ZM398.889 312.636V311.636H397.457V312.636V313.636H398.889V312.636ZM397.457 312.636H398.457V312.511H397.457H396.457V312.636H397.457ZM397.457 312.511L398.196 313.184L402.219 308.764L401.48 308.091L400.74 307.418L396.717 311.838L397.457 312.511ZM401.48 308.091V309.091H402.411V308.091V307.091H401.48V308.091ZM402.411 308.091L401.672 308.764L405.695 313.184L406.434 312.511L407.174 311.838L403.151 307.418L402.411 308.091ZM406.434 312.511H405.434V312.636H406.434H407.434V312.511H406.434ZM406.434 312.636V311.636H405.002V312.636V313.636H406.434V312.636ZM422.586 332V333H423.586V332H422.586ZM421.199 332H420.199V333H421.199V332ZM421.199 314.545V313.545H420.199V314.545H421.199ZM422.552 314.545H423.552V313.545H422.552V314.545ZM422.552 317.307H421.552V318.307H422.552V317.307ZM422.688 317.307V318.307H423.332L423.599 317.72L422.688 317.307ZM424.654 315.136L425.172 315.992L425.172 315.992L424.654 315.136ZM430.961 315.068L430.469 315.939L430.473 315.941L430.961 315.068ZM433.052 317.205L432.172 317.68L432.177 317.689L433.052 317.205ZM433.813 332V333H434.813V332H433.813ZM432.427 332H431.427V333H432.427V332ZM431.097 316.966L430.378 317.661L430.384 317.667L431.097 316.966ZM425.018 316.239L425.506 317.111L425.018 316.239ZM423.233 318.023L424.102 318.518L424.104 318.514L423.233 318.023ZM422.586 320.682H421.586V332H422.586H423.586V320.682H422.586ZM422.586 332V331H421.199V332V333H422.586V332ZM421.199 332H422.199V314.545H421.199H420.199V332H421.199ZM421.199 314.545V315.545H422.552V314.545V313.545H421.199V314.545ZM422.552 314.545H421.552V317.307H422.552H423.552V314.545H422.552ZM422.552 317.307V318.307H422.688V317.307V316.307H422.552V317.307ZM422.688 317.307L423.599 317.72C423.919 317.014 424.431 316.44 425.172 315.992L424.654 315.136L424.136 314.281C423.074 314.924 422.275 315.796 421.777 316.894L422.688 317.307ZM424.654 315.136L425.172 315.992C425.891 315.557 426.777 315.318 427.87 315.318V314.318V313.318C426.478 313.318 425.22 313.625 424.136 314.281L424.654 315.136ZM427.87 314.318V315.318C428.899 315.318 429.755 315.536 430.469 315.939L430.961 315.068L431.452 314.197C430.394 313.6 429.189 313.318 427.87 313.318V314.318ZM430.961 315.068L430.473 315.941C431.197 316.346 431.76 316.918 432.172 317.68L433.052 317.205L433.931 316.729C433.343 315.642 432.513 314.79 431.449 314.195L430.961 315.068ZM433.052 317.205L432.177 317.689C432.586 318.429 432.813 319.349 432.813 320.489H433.813H434.813C434.813 319.083 434.532 317.814 433.926 316.72L433.052 317.205ZM433.813 320.489H432.813V332H433.813H434.813V320.489H433.813ZM433.813 332V331H432.427V332V333H433.813V332ZM432.427 332H433.427V320.545H432.427H431.427V332H432.427ZM432.427 320.545H433.427C433.427 318.848 432.912 317.386 431.81 316.265L431.097 316.966L430.384 317.667C431.055 318.349 431.427 319.274 431.427 320.545H432.427ZM431.097 316.966L431.816 316.271C430.721 315.138 429.284 314.602 427.608 314.602V315.602V316.602C428.827 316.602 429.716 316.975 430.378 317.661L431.097 316.966ZM427.608 315.602V314.602C426.488 314.602 425.453 314.849 424.529 315.366L425.018 316.239L425.506 317.111C426.098 316.78 426.789 316.602 427.608 316.602V315.602ZM425.018 316.239L424.529 315.366C423.609 315.881 422.883 316.608 422.363 317.531L423.233 318.023L424.104 318.514C424.447 317.907 424.911 317.445 425.506 317.111L425.018 316.239ZM423.233 318.023L422.365 317.528C421.834 318.459 421.586 319.522 421.586 320.682H422.586H423.586C423.586 319.812 423.77 319.101 424.102 318.518L423.233 318.023ZM447.323 332H446.323V333H447.323V332ZM447.323 314.545V313.545H446.323V314.545H447.323ZM448.698 314.545H449.698V313.545H448.698V314.545ZM448.698 332V333H449.698V332H448.698ZM447.22 311.136L446.526 311.856L446.532 311.862L446.538 311.867L447.22 311.136ZM448.8 309.591L448.105 310.31L448.111 310.316L448.118 310.322L448.8 309.591ZM448.811 311.136L448.117 310.417L448.117 310.417L448.811 311.136ZM447.323 332H448.323V314.545H447.323H446.323V332H447.323ZM447.323 314.545V315.545H448.698V314.545V313.545H447.323V314.545ZM448.698 314.545H447.698V332H448.698H449.698V314.545H448.698ZM448.698 332V331H447.323V332V333H448.698V332ZM448.016 311.455V310.455C447.973 310.455 447.95 310.45 447.903 310.405L447.22 311.136L446.538 311.867C446.945 312.247 447.452 312.455 448.016 312.455V311.455ZM447.22 311.136L447.915 310.417C447.903 310.405 447.897 310.398 447.895 310.394C447.893 310.391 447.892 310.391 447.893 310.392C447.893 310.393 447.893 310.393 447.893 310.39C447.892 310.387 447.891 310.379 447.891 310.364H446.891H445.891C445.891 310.94 446.113 311.457 446.526 311.856L447.22 311.136ZM446.891 310.364H447.891C447.891 310.349 447.892 310.34 447.893 310.337C447.893 310.334 447.893 310.334 447.893 310.335C447.892 310.337 447.893 310.336 447.895 310.333C447.897 310.33 447.903 310.322 447.915 310.31L447.22 309.591L446.526 308.872C446.113 309.27 445.891 309.787 445.891 310.364H446.891ZM447.22 309.591L447.915 310.31C447.938 310.288 447.951 310.282 447.955 310.281C447.96 310.279 447.976 310.273 448.016 310.273V309.273V308.273C447.451 308.273 446.935 308.476 446.526 308.872L447.22 309.591ZM448.016 309.273V310.273C448.048 310.273 448.06 310.278 448.063 310.279C448.066 310.28 448.08 310.286 448.105 310.31L448.8 309.591L449.494 308.872C449.09 308.481 448.58 308.273 448.016 308.273V309.273ZM448.8 309.591L448.118 310.322C448.131 310.334 448.137 310.343 448.14 310.346C448.142 310.349 448.142 310.349 448.141 310.347C448.14 310.344 448.139 310.343 448.139 310.344C448.14 310.344 448.141 310.351 448.141 310.364H449.141H450.141C450.141 309.775 449.906 309.256 449.482 308.86L448.8 309.591ZM449.141 310.364H448.141C448.141 310.379 448.139 310.387 448.139 310.39C448.138 310.393 448.138 310.393 448.138 310.392C448.139 310.391 448.139 310.391 448.137 310.394C448.134 310.398 448.129 310.405 448.117 310.417L448.811 311.136L449.506 311.856C449.919 311.457 450.141 310.94 450.141 310.364H449.141ZM448.811 311.136L448.117 310.417C448.093 310.439 448.08 310.445 448.076 310.447C448.072 310.448 448.055 310.455 448.016 310.455V311.455V312.455C448.581 312.455 449.096 312.251 449.506 311.856L448.811 311.136ZM464.809 331.193L464.237 332.013L464.241 332.016L464.809 331.193ZM462.162 327.966L461.254 328.385L461.255 328.389L462.162 327.966ZM462.173 318.693L461.267 318.27L461.267 318.27L462.173 318.693ZM464.821 315.466L464.248 314.646L464.248 314.646L464.821 315.466ZM471.741 314.966L471.294 315.86L471.297 315.862L471.741 314.966ZM474.014 316.864L473.209 317.458L473.213 317.462L474.014 316.864ZM475.173 319.682V320.682H476.341L476.161 319.528L475.173 319.682ZM473.764 319.682L472.782 319.871L472.938 320.682H473.764V319.682ZM472.059 316.75L471.405 317.506L471.412 317.512L472.059 316.75ZM465.571 316.58L466.151 317.394L466.156 317.391L465.571 316.58ZM463.389 319.318L464.298 319.734L464.299 319.732L463.389 319.318ZM463.366 327.284L462.45 327.686L462.451 327.688L463.366 327.284ZM465.525 330.057L466.119 329.252L466.119 329.252L465.525 330.057ZM471.071 330.568L470.639 329.666L470.635 329.668L471.071 330.568ZM472.855 329.114L472.058 328.509L472.058 328.509L472.855 329.114ZM473.798 326.909V325.909H472.962L472.814 326.732L473.798 326.909ZM475.207 326.909L476.195 327.062L476.374 325.909H475.207V326.909ZM471.809 331.67L471.359 330.778L471.359 330.778L471.809 331.67ZM468.73 332.364V331.364C467.431 331.364 466.326 331.026 465.378 330.371L464.809 331.193L464.241 332.016C465.551 332.921 467.059 333.364 468.73 333.364V332.364ZM464.809 331.193L465.382 330.373C464.41 329.695 463.637 328.763 463.068 327.543L462.162 327.966L461.255 328.389C461.959 329.897 462.951 331.115 464.237 332.013L464.809 331.193ZM462.162 327.966L463.07 327.547C462.51 326.333 462.218 324.934 462.218 323.33H461.218H460.218C460.218 325.18 460.556 326.871 461.254 328.385L462.162 327.966ZM461.218 323.33H462.218C462.218 321.727 462.513 320.329 463.079 319.116L462.173 318.693L461.267 318.27C460.56 319.785 460.218 321.478 460.218 323.33H461.218ZM462.173 318.693L463.079 319.116C463.648 317.897 464.422 316.964 465.393 316.286L464.821 315.466L464.248 314.646C462.962 315.544 461.97 316.763 461.267 318.27L462.173 318.693ZM464.821 315.466L465.393 316.286C466.342 315.623 467.439 315.284 468.718 315.284V314.284V313.284C467.059 313.284 465.557 313.733 464.248 314.646L464.821 315.466ZM468.718 314.284V315.284C469.683 315.284 470.536 315.481 471.294 315.86L471.741 314.966L472.188 314.071C471.129 313.542 469.966 313.284 468.718 313.284V314.284ZM471.741 314.966L471.297 315.862C472.074 316.247 472.707 316.777 473.209 317.458L474.014 316.864L474.818 316.27C474.124 315.329 473.242 314.594 472.185 314.07L471.741 314.966ZM474.014 316.864L473.213 317.462C473.715 318.133 474.042 318.918 474.185 319.836L475.173 319.682L476.161 319.528C475.971 318.31 475.525 317.215 474.815 316.265L474.014 316.864ZM475.173 319.682V318.682H473.764V319.682V320.682H475.173V319.682ZM473.764 319.682L474.746 319.493C474.476 318.09 473.791 316.91 472.707 315.988L472.059 316.75L471.412 317.512C472.146 318.136 472.597 318.91 472.782 319.871L473.764 319.682ZM472.059 316.75L472.714 315.994C471.611 315.039 470.261 314.58 468.73 314.58V315.58V316.58C469.835 316.58 470.705 316.9 471.405 317.506L472.059 316.75ZM468.73 315.58V314.58C467.346 314.58 466.087 314.974 464.986 315.769L465.571 316.58L466.156 317.391C466.903 316.852 467.75 316.58 468.73 316.58V315.58ZM465.571 316.58L464.99 315.765C463.905 316.539 463.072 317.599 462.479 318.904L463.389 319.318L464.299 319.732C464.766 318.704 465.388 317.938 466.151 317.394L465.571 316.58ZM463.389 319.318L462.48 318.902C461.88 320.213 461.593 321.688 461.593 323.307H462.593H463.593C463.593 321.925 463.837 320.742 464.298 319.734L463.389 319.318ZM462.593 323.307H461.593C461.593 324.901 461.872 326.367 462.45 327.686L463.366 327.284L464.282 326.882C463.83 325.853 463.593 324.667 463.593 323.307H462.593ZM463.366 327.284L462.451 327.688C463.029 328.996 463.852 330.065 464.932 330.862L465.525 330.057L466.119 329.252C465.35 328.685 464.734 327.906 464.281 326.88L463.366 327.284ZM465.525 330.057L464.932 330.862C466.038 331.677 467.317 332.08 468.73 332.08V331.08V330.08C467.719 330.08 466.861 329.8 466.119 329.252L465.525 330.057ZM468.73 331.08V332.08C469.722 332.08 470.654 331.881 471.506 331.468L471.071 330.568L470.635 329.668C470.079 329.937 469.449 330.08 468.73 330.08V331.08ZM471.071 330.568L471.503 331.47C472.358 331.061 473.078 330.474 473.651 329.718L472.855 329.114L472.058 328.509C471.677 329.011 471.208 329.394 470.639 329.666L471.071 330.568ZM472.855 329.114L473.651 329.718C474.232 328.954 474.605 328.069 474.782 327.086L473.798 326.909L472.814 326.732C472.688 327.431 472.433 328.016 472.058 328.509L472.855 329.114ZM473.798 326.909V327.909H475.207V326.909V325.909H473.798V326.909ZM475.207 326.909L474.219 326.756C474.074 327.688 473.751 328.484 473.26 329.165L474.071 329.75L474.881 330.335C475.572 329.379 476.006 328.282 476.195 327.062L475.207 326.909ZM474.071 329.75L473.26 329.165C472.765 329.851 472.135 330.386 471.359 330.778L471.809 331.67L472.26 332.563C473.317 332.03 474.195 331.286 474.881 330.335L474.071 329.75ZM471.809 331.67L471.359 330.778C470.597 331.162 469.727 331.364 468.73 331.364V332.364V333.364C470.006 333.364 471.189 333.103 472.26 332.563L471.809 331.67ZM489.467 331.773L489.033 332.674L489.036 332.675L489.467 331.773ZM487.455 330.011L486.616 330.555L486.619 330.56L487.455 330.011ZM487.092 325.273L486.185 324.851L486.185 324.851L487.092 325.273ZM488.285 323.841L488.883 324.642L488.883 324.642L488.285 323.841ZM490.353 322.852L490.646 323.808L490.654 323.806L490.353 322.852ZM493.364 322.239L493.246 321.246L493.242 321.246L493.364 322.239ZM495.739 321.932L495.879 322.922L495.89 322.92L495.739 321.932ZM497.376 321.443L496.896 320.566L496.889 320.57L497.376 321.443ZM496.773 316.682L496.091 317.413L496.091 317.413L496.773 316.682ZM490.296 316.386L490.837 317.228L490.839 317.226L490.296 316.386ZM488.512 318.5L488.162 319.437L489.082 319.781L489.442 318.867L488.512 318.5ZM487.205 318.011L486.277 317.64L485.897 318.59L486.855 318.948L487.205 318.011ZM488.648 315.932L487.993 315.177L487.988 315.181L488.648 315.932ZM490.83 314.693L490.517 313.744L490.514 313.744L490.83 314.693ZM495.648 314.614L495.351 315.568L495.354 315.569L495.648 314.614ZM497.546 315.614L496.918 316.391L496.923 316.396L497.546 315.614ZM498.876 317.33L497.97 317.753L497.972 317.757L498.876 317.33ZM499.364 332V333H500.364V332H499.364ZM497.978 332H496.978V333H497.978V332ZM497.978 328.852H498.978V327.852H497.978V328.852ZM497.876 328.852V327.852H497.238L496.969 328.431L497.876 328.852ZM496.626 330.636L495.914 329.934L495.914 329.934L496.626 330.636ZM494.728 331.909L495.117 332.83L495.122 332.828L494.728 331.909ZM495.273 330.295L495.807 331.141L495.809 331.14L495.273 330.295ZM497.262 328.091L498.152 328.547L498.152 328.547L497.262 328.091ZM497.978 322.352H498.978V320.158L497.322 321.598L497.978 322.352ZM497.217 322.761L497.546 323.706L497.558 323.701L497.217 322.761ZM496.103 323.068L496.303 324.048L496.316 324.045L496.103 323.068ZM494.808 323.295L494.942 324.286L494.956 324.284L494.808 323.295ZM493.501 323.466L493.619 324.459L493.625 324.458L493.501 323.466ZM490.387 324.17L490.751 325.102L490.755 325.1L490.387 324.17ZM488.637 325.398L487.83 324.807L487.824 324.815L488.637 325.398ZM489.319 330.057L488.675 330.822L488.675 330.822L489.319 330.057ZM492.239 332.375V331.375C491.369 331.375 490.593 331.202 489.898 330.87L489.467 331.773L489.036 332.675C490.022 333.146 491.095 333.375 492.239 333.375V332.375ZM489.467 331.773L489.901 330.872C489.231 330.549 488.699 330.083 488.291 329.462L487.455 330.011L486.619 330.56C487.227 331.485 488.036 332.193 489.033 332.674L489.467 331.773ZM487.455 330.011L488.295 329.468C487.919 328.887 487.705 328.146 487.705 327.193H486.705H485.705C485.705 328.453 485.992 329.59 486.616 330.555L487.455 330.011ZM486.705 327.193H487.705C487.705 326.584 487.813 326.093 487.998 325.695L487.092 325.273L486.185 324.851C485.855 325.559 485.705 326.348 485.705 327.193H486.705ZM487.092 325.273L487.998 325.695C488.179 325.306 488.464 324.955 488.883 324.642L488.285 323.841L487.687 323.04C487.03 323.53 486.519 324.133 486.185 324.851L487.092 325.273ZM488.285 323.841L488.883 324.642C489.305 324.327 489.883 324.042 490.646 323.808L490.353 322.852L490.06 321.896C489.142 322.177 488.34 322.552 487.687 323.04L488.285 323.841ZM490.353 322.852L490.654 323.806C491.421 323.564 492.362 323.37 493.487 323.231L493.364 322.239L493.242 321.246C492.033 321.395 490.967 321.61 490.052 321.899L490.353 322.852ZM493.364 322.239L493.483 323.232C494.375 323.125 495.174 323.022 495.879 322.922L495.739 321.932L495.599 320.942C494.911 321.039 494.127 321.14 493.246 321.246L493.364 322.239ZM495.739 321.932L495.89 322.92C496.646 322.805 497.323 322.618 497.863 322.317L497.376 321.443L496.889 320.57C496.641 320.708 496.227 320.846 495.589 320.943L495.739 321.932ZM497.376 321.443L497.856 322.32C498.184 322.141 498.477 321.888 498.684 321.544C498.892 321.2 498.978 320.821 498.978 320.443H497.978H496.978C496.978 320.48 496.974 320.5 496.972 320.508C496.97 320.515 496.969 320.515 496.971 320.512C496.972 320.51 496.971 320.513 496.963 320.521C496.954 320.529 496.934 320.545 496.896 320.566L497.376 321.443ZM497.978 320.443H498.978V319.716H497.978H496.978V320.443H497.978ZM497.978 319.716H498.978C498.978 318.214 498.494 316.921 497.456 315.951L496.773 316.682L496.091 317.413C496.659 317.943 496.978 318.672 496.978 319.716H497.978ZM496.773 316.682L497.456 315.951C496.42 314.983 495.044 314.557 493.455 314.557V315.557V316.557C494.685 316.557 495.521 316.88 496.091 317.413L496.773 316.682ZM493.455 315.557V314.557C492.057 314.557 490.805 314.867 489.754 315.546L490.296 316.386L490.839 317.226C491.5 316.799 492.354 316.557 493.455 316.557V315.557ZM490.296 316.386L489.755 315.545C488.747 316.194 488.007 317.057 487.582 318.133L488.512 318.5L489.442 318.867C489.7 318.215 490.149 317.67 490.837 317.228L490.296 316.386ZM488.512 318.5L488.862 317.563L487.556 317.075L487.205 318.011L486.855 318.948L488.162 319.437L488.512 318.5ZM487.205 318.011L488.134 318.383C488.413 317.684 488.806 317.125 489.309 316.683L488.648 315.932L487.988 315.181C487.233 315.845 486.664 316.672 486.277 317.64L487.205 318.011ZM488.648 315.932L489.304 316.687C489.839 316.222 490.45 315.874 491.147 315.642L490.83 314.693L490.514 313.744C489.574 314.058 488.731 314.536 487.993 315.177L488.648 315.932ZM490.83 314.693L491.144 315.643C491.865 315.405 492.622 315.284 493.421 315.284V314.284V313.284C492.417 313.284 491.447 313.436 490.517 313.744L490.83 314.693ZM493.421 314.284V315.284C494.106 315.284 494.748 315.38 495.351 315.568L495.648 314.614L495.946 313.659C495.14 313.408 494.297 313.284 493.421 313.284V314.284ZM495.648 314.614L495.354 315.569C495.95 315.753 496.468 316.028 496.918 316.391L497.546 315.614L498.175 314.836C497.518 314.305 496.771 313.913 495.943 313.658L495.648 314.614ZM497.546 315.614L496.923 316.396C497.354 316.739 497.704 317.185 497.97 317.753L498.876 317.33L499.782 316.906C499.396 316.08 498.859 315.382 498.17 314.832L497.546 315.614ZM498.876 317.33L497.972 317.757C498.22 318.282 498.364 318.955 498.364 319.807H499.364H500.364C500.364 318.734 500.183 317.756 499.78 316.902L498.876 317.33ZM499.364 319.807H498.364V332H499.364H500.364V319.807H499.364ZM499.364 332V331H497.978V332V333H499.364V332ZM497.978 332H498.978V328.852H497.978H496.978V332H497.978ZM497.978 328.852V327.852H497.876V328.852V329.852H497.978V328.852ZM497.876 328.852L496.969 328.431C496.717 328.973 496.368 329.474 495.914 329.934L496.626 330.636L497.338 331.338C497.944 330.723 498.429 330.035 498.782 329.274L497.876 328.852ZM496.626 330.636L495.914 329.934C495.489 330.365 494.968 330.718 494.334 330.99L494.728 331.909L495.122 332.828C495.973 332.463 496.717 331.969 497.338 331.338L496.626 330.636ZM494.728 331.909L494.339 330.988C493.745 331.239 493.051 331.375 492.239 331.375V332.375V333.375C493.276 333.375 494.241 333.2 495.117 332.83L494.728 331.909ZM492.376 331.091V332.091C493.636 332.091 494.791 331.782 495.807 331.141L495.273 330.295L494.74 329.45C494.074 329.87 493.297 330.091 492.376 330.091V331.091ZM495.273 330.295L495.809 331.14C496.815 330.502 497.597 329.631 498.152 328.547L497.262 328.091L496.372 327.635C495.973 328.415 495.429 329.013 494.738 329.451L495.273 330.295ZM497.262 328.091L498.152 328.547C498.711 327.457 498.978 326.24 498.978 324.92H497.978H496.978C496.978 325.964 496.768 326.862 496.372 327.635L497.262 328.091ZM497.978 324.92H498.978V322.352H497.978H496.978V324.92H497.978ZM497.978 322.352L497.322 321.598C497.276 321.637 497.148 321.722 496.875 321.822L497.217 322.761L497.558 323.701C497.952 323.558 498.332 323.37 498.634 323.107L497.978 322.352ZM497.217 322.761L496.887 321.817C496.607 321.915 496.276 322.007 495.89 322.091L496.103 323.068L496.316 324.045C496.763 323.948 497.175 323.835 497.546 323.706L497.217 322.761ZM496.103 323.068L495.903 322.088C495.513 322.168 495.098 322.241 494.659 322.307L494.808 323.295L494.956 324.284C495.426 324.214 495.875 324.135 496.303 324.048L496.103 323.068ZM494.808 323.295L494.673 322.305C494.229 322.365 493.797 322.421 493.377 322.474L493.501 323.466L493.625 324.458C494.053 324.405 494.492 324.347 494.942 324.286L494.808 323.295ZM493.501 323.466L493.383 322.473C492.061 322.63 490.931 322.879 490.019 323.241L490.387 324.17L490.755 325.1C491.45 324.825 492.395 324.605 493.619 324.459L493.501 323.466ZM490.387 324.17L490.023 323.239C489.112 323.595 488.347 324.1 487.83 324.807L488.637 325.398L489.444 325.988C489.67 325.68 490.071 325.367 490.751 325.102L490.387 324.17ZM488.637 325.398L487.824 324.815C487.321 325.518 487.092 326.343 487.092 327.239H488.092H489.092C489.092 326.695 489.226 326.293 489.45 325.98L488.637 325.398ZM488.092 327.239H487.092C487.092 328.686 487.604 329.919 488.675 330.822L489.319 330.057L489.963 329.292C489.398 328.815 489.092 328.17 489.092 327.239H488.092ZM489.319 330.057L488.675 330.822C489.698 331.684 490.955 332.091 492.376 332.091V331.091V330.091C491.357 330.091 490.576 329.808 489.963 329.292L489.319 330.057Z" fill="#D3D2DA" mask="url(#path-3-outside-2_1_5)"/>
<path d="M26 322H290" stroke="#D3D2DA" stroke-width="3"/>
<path d="M521 322H785" stroke="#D3D2DA" stroke-width="3"/>
<path d="M44.5 80.5C40.9 85.7 31.6667 121 27.5 138C45.9 118.8 102.833 104.667 129 100C51 96.5 49 74 44.5 80.5Z" fill="url(#paint1_linear_1_5)"/>
<path d="M192.156 104.961C192.102 104.974 192.05 104.987 192 105C192.051 104.986 192.103 104.973 192.156 104.961C200.29 103.043 247.737 106.389 374.5 135C396.333 140 464.5 145.9 562.5 129.5C523 139.333 426.1 156.9 354.5 148.5C282.9 140.1 249 145 241 148.5C228.407 133.09 201.121 102.954 192.156 104.961Z" fill="url(#paint2_linear_1_5)"/>
<path d="M784.5 156C770.9 138.4 732.167 131 714.5 129.5C724 154 754 152.5 760.5 151.5C765.7 150.7 778.667 154.167 784.5 156Z" fill="url(#paint3_linear_1_5)"/>
<path d="M27.5 138C31.6667 121 40.9 85.7 44.5 80.5C49 74 51 96.5 129 100C102.833 104.667 45.9 118.8 27.5 138ZM192 105C199.667 103 246.9 106.2 374.5 135C396.333 140 464.5 145.9 562.5 129.5C523 139.333 426.1 156.9 354.5 148.5C282.9 140.1 249 145 241 148.5C228.333 133 200.8 102.6 192 105ZM714.5 129.5C732.167 131 770.9 138.4 784.5 156C778.667 154.167 765.7 150.7 760.5 151.5C754 152.5 724 154 714.5 129.5Z" stroke="#908E92" stroke-width="2"/>
<path d="M245 86.5C288.333 94.3333 402.8 108 514 100C625.2 92 711 114 740 126C707.667 116.667 604 102 448 118C412.167 121.667 321.4 120.5 245 86.5Z" fill="url(#paint4_linear_1_5)"/>
<path d="M21 36C52.5 56.1667 149.2 86.6 284 47C418.8 7.40001 540.167 59.1667 584 90C532.667 64.8333 399.9 25.2 279.5 68C159.1 110.8 57 64.5 21 36Z" fill="url(#paint5_linear_1_5)"/>
<path d="M81.5 151.5C101 128.833 158.5 100 205 151.5C195.5 110.5 112.5 87.5 81.5 151.5Z" fill="url(#paint6_linear_1_5)"/>
<path d="M579.5 156C599 133.333 656.5 104.5 703 156C693.5 115 610.5 92 579.5 156Z" fill="url(#paint7_linear_1_5)"/>
<path d="M245 86.5C288.333 94.3333 402.8 108 514 100C625.2 92 711 114 740 126C707.667 116.667 604 102 448 118C412.167 121.667 321.4 120.5 245 86.5Z" stroke="#161437" stroke-width="2"/>
<path d="M21 36C52.5 56.1667 149.2 86.6 284 47C418.8 7.40001 540.167 59.1667 584 90C532.667 64.8333 399.9 25.2 279.5 68C159.1 110.8 57 64.5 21 36Z" stroke="#161437" stroke-width="2"/>
<path d="M81.5 151.5C101 128.833 158.5 100 205 151.5C195.5 110.5 112.5 87.5 81.5 151.5Z" stroke="#161437" stroke-width="2"/>
<path d="M579.5 156C599 133.333 656.5 104.5 703 156C693.5 115 610.5 92 579.5 156Z" stroke="#161437" stroke-width="2"/>
<defs>
<linearGradient id="paint0_linear_1_5" x1="98" y1="24" x2="759" y2="338" gradientUnits="userSpaceOnUse">
<stop offset="0.0972026" stop-color="#B1B2B6"/>
<stop offset="0.117374" stop-color="#EDEDF7"/>
<stop offset="0.330584" stop-color="#B1B2B6"/>
<stop offset="0.346154" stop-color="#EDEDF7"/>
<stop offset="0.641696" stop-color="#B1B2B6"/>
<stop offset="0.654869" stop-color="#EDEDF7"/>
<stop offset="0.964441" stop-color="#B1B2B6"/>
<stop offset="1" stop-color="#EDEDF7"/>
</linearGradient>
<linearGradient id="paint1_linear_1_5" x1="176" y1="355" x2="701" y2="2" gradientUnits="userSpaceOnUse">
<stop stop-color="#8D8C91"/>
<stop offset="0.0663449" stop-color="#EEEEF8"/>
<stop offset="0.0730446" stop-color="#8D8C91"/>
<stop offset="0.268824" stop-color="#EEEEF8"/>
<stop offset="0.279246" stop-color="#8D8C91"/>
<stop offset="0.5" stop-color="#EEEEF8"/>
<stop offset="0.511502" stop-color="#8D8C91"/>
<stop offset="0.630607" stop-color="#EEEEF8"/>
<stop offset="0.642518" stop-color="#8D8C91"/>
<stop offset="0.889423" stop-color="#8D8C91"/>
<stop offset="0.889473" stop-color="#EEEEF8"/>
<stop offset="0.927627" stop-color="#EEEEF8"/>
<stop offset="0.938793" stop-color="#8D8C91"/>
<stop offset="1" stop-color="#EEEEF8"/>
</linearGradient>
<linearGradient id="paint2_linear_1_5" x1="176" y1="355" x2="701" y2="2" gradientUnits="userSpaceOnUse">
<stop stop-color="#8D8C91"/>
<stop offset="0.0663449" stop-color="#EEEEF8"/>
<stop offset="0.0730446" stop-color="#8D8C91"/>
<stop offset="0.268824" stop-color="#EEEEF8"/>
<stop offset="0.279246" stop-color="#8D8C91"/>
<stop offset="0.5" stop-color="#EEEEF8"/>
<stop offset="0.511502" stop-color="#8D8C91"/>
<stop offset="0.630607" stop-color="#EEEEF8"/>
<stop offset="0.642518" stop-color="#8D8C91"/>
<stop offset="0.889423" stop-color="#8D8C91"/>
<stop offset="0.889473" stop-color="#EEEEF8"/>
<stop offset="0.927627" stop-color="#EEEEF8"/>
<stop offset="0.938793" stop-color="#8D8C91"/>
<stop offset="1" stop-color="#EEEEF8"/>
</linearGradient>
<linearGradient id="paint3_linear_1_5" x1="176" y1="355" x2="701" y2="2" gradientUnits="userSpaceOnUse">
<stop stop-color="#8D8C91"/>
<stop offset="0.0663449" stop-color="#EEEEF8"/>
<stop offset="0.0730446" stop-color="#8D8C91"/>
<stop offset="0.268824" stop-color="#EEEEF8"/>
<stop offset="0.279246" stop-color="#8D8C91"/>
<stop offset="0.5" stop-color="#EEEEF8"/>
<stop offset="0.511502" stop-color="#8D8C91"/>
<stop offset="0.630607" stop-color="#EEEEF8"/>
<stop offset="0.642518" stop-color="#8D8C91"/>
<stop offset="0.889423" stop-color="#8D8C91"/>
<stop offset="0.889473" stop-color="#EEEEF8"/>
<stop offset="0.927627" stop-color="#EEEEF8"/>
<stop offset="0.938793" stop-color="#8D8C91"/>
<stop offset="1" stop-color="#EEEEF8"/>
</linearGradient>
<linearGradient id="paint4_linear_1_5" x1="374" y1="422.5" x2="766" y2="-185.5" gradientUnits="userSpaceOnUse">
<stop stop-color="#1900D9"/>
<stop offset="0.14918" stop-color="#070040"/>
<stop offset="0.16685" stop-color="#1900D9"/>
<stop offset="0.491761" stop-color="#070040"/>
<stop offset="0.524068" stop-color="#1900D9"/>
<stop offset="0.784234" stop-color="#070040"/>
<stop offset="0.800849" stop-color="#1900D9"/>
<stop offset="0.933899" stop-color="#070040"/>
<stop offset="0.949459" stop-color="#1900D9"/>
</linearGradient>
<linearGradient id="paint5_linear_1_5" x1="374" y1="422.5" x2="766" y2="-185.5" gradientUnits="userSpaceOnUse">
<stop stop-color="#1900D9"/>
<stop offset="0.14918" stop-color="#070040"/>
<stop offset="0.16685" stop-color="#1900D9"/>
<stop offset="0.491761" stop-color="#070040"/>
<stop offset="0.524068" stop-color="#1900D9"/>
<stop offset="0.784234" stop-color="#070040"/>
<stop offset="0.800849" stop-color="#1900D9"/>
<stop offset="0.933899" stop-color="#070040"/>
<stop offset="0.949459" stop-color="#1900D9"/>
</linearGradient>
<linearGradient id="paint6_linear_1_5" x1="374" y1="422.5" x2="766" y2="-185.5" gradientUnits="userSpaceOnUse">
<stop stop-color="#1900D9"/>
<stop offset="0.14918" stop-color="#070040"/>
<stop offset="0.16685" stop-color="#1900D9"/>
<stop offset="0.491761" stop-color="#070040"/>
<stop offset="0.524068" stop-color="#1900D9"/>
<stop offset="0.784234" stop-color="#070040"/>
<stop offset="0.800849" stop-color="#1900D9"/>
<stop offset="0.933899" stop-color="#070040"/>
<stop offset="0.949459" stop-color="#1900D9"/>
</linearGradient>
<linearGradient id="paint7_linear_1_5" x1="374" y1="422.5" x2="766" y2="-185.5" gradientUnits="userSpaceOnUse">
<stop stop-color="#1900D9"/>
<stop offset="0.14918" stop-color="#070040"/>
<stop offset="0.16685" stop-color="#1900D9"/>
<stop offset="0.491761" stop-color="#070040"/>
<stop offset="0.524068" stop-color="#1900D9"/>
<stop offset="0.784234" stop-color="#070040"/>
<stop offset="0.800849" stop-color="#1900D9"/>
<stop offset="0.933899" stop-color="#070040"/>
<stop offset="0.949459" stop-color="#1900D9"/>
</linearGradient>
</defs>
</svg>
